G04 #@! TF.FileFunction,Copper,L2,Bot,Signal*
%FSLAX46Y46*%
G04 Gerber Fmt 4.6, Leading zero omitted, Abs format (unit mm)*
G04 Created by KiCad (PCBNEW 4.0.1-3.201512221402+6198~38~ubuntu14.04.1-stable) date Fri 08 Jan 2016 09:21:13 PM CST*
%MOMM*%
G01*
G04 APERTURE LIST*
%ADD10C,0.100000*%
%ADD11R,2.032000X1.727200*%
%ADD12O,2.032000X1.727200*%
%ADD13R,1.727200X1.727200*%
%ADD14O,1.727200X1.727200*%
%ADD15C,2.032000*%
%ADD16O,2.032000X2.032000*%
%ADD17O,1.600000X1.600000*%
%ADD18C,1.501140*%
%ADD19C,0.600000*%
%ADD20C,0.600000*%
%ADD21C,0.254000*%
G04 APERTURE END LIST*
D10*
D11*
X127254000Y-128778000D03*
D12*
X127254000Y-131318000D03*
X127254000Y-133858000D03*
X127254000Y-136398000D03*
X127254000Y-138938000D03*
X127254000Y-141478000D03*
D13*
X174752000Y-101854000D03*
D14*
X177292000Y-101854000D03*
X174752000Y-104394000D03*
X177292000Y-104394000D03*
X174752000Y-106934000D03*
X177292000Y-106934000D03*
X174752000Y-109474000D03*
X177292000Y-109474000D03*
X174752000Y-112014000D03*
X177292000Y-112014000D03*
X174752000Y-114554000D03*
X177292000Y-114554000D03*
X174752000Y-117094000D03*
X177292000Y-117094000D03*
X174752000Y-119634000D03*
X177292000Y-119634000D03*
X174752000Y-122174000D03*
X177292000Y-122174000D03*
X174752000Y-124714000D03*
X177292000Y-124714000D03*
X174752000Y-127254000D03*
X177292000Y-127254000D03*
X174752000Y-129794000D03*
X177292000Y-129794000D03*
X174752000Y-132334000D03*
X177292000Y-132334000D03*
X174752000Y-134874000D03*
X177292000Y-134874000D03*
X174752000Y-137414000D03*
X177292000Y-137414000D03*
X174752000Y-139954000D03*
X177292000Y-139954000D03*
X174752000Y-142494000D03*
X177292000Y-142494000D03*
X174752000Y-145034000D03*
X177292000Y-145034000D03*
X174752000Y-147574000D03*
X177292000Y-147574000D03*
X174752000Y-150114000D03*
X177292000Y-150114000D03*
D15*
X156083000Y-142494000D03*
X156083000Y-137414000D03*
D16*
X156083000Y-139954000D03*
D17*
X126746000Y-106172000D03*
X126746000Y-108712000D03*
X126746000Y-111252000D03*
X126746000Y-113792000D03*
X134366000Y-113792000D03*
X134366000Y-111252000D03*
X134366000Y-108712000D03*
X134366000Y-106172000D03*
X154940000Y-104140000D03*
X154940000Y-106680000D03*
X154940000Y-109220000D03*
X154940000Y-111760000D03*
X154940000Y-114300000D03*
X154940000Y-116840000D03*
X154940000Y-119380000D03*
X154940000Y-121920000D03*
X154940000Y-124460000D03*
X162560000Y-124460000D03*
X162560000Y-121920000D03*
X162560000Y-119380000D03*
X162560000Y-116840000D03*
X162560000Y-114300000D03*
X162560000Y-111760000D03*
X162560000Y-109220000D03*
X162560000Y-106680000D03*
X162560000Y-104140000D03*
D18*
X149606000Y-118717060D03*
X149606000Y-123598940D03*
D19*
X127286000Y-122174000D03*
X144812000Y-129032000D03*
X144780000Y-122904000D03*
X141954000Y-106172000D03*
X168656000Y-117348000D03*
X168656000Y-122428000D03*
X170942000Y-103378000D03*
X131286000Y-118872000D03*
X138684000Y-115824000D03*
D20*
X127286000Y-122174000D02*
X127254000Y-122174000D01*
X144812000Y-129032000D02*
X144780000Y-129032000D01*
X144780000Y-122904000D02*
X144780000Y-122936000D01*
X141954000Y-106172000D02*
X141986000Y-106172000D01*
X168656000Y-122428000D02*
X168656000Y-117348000D01*
X180086000Y-100584000D02*
X180086000Y-99314000D01*
X170942000Y-103378000D02*
X170942000Y-99314000D01*
X170942000Y-99314000D02*
X178816000Y-99314000D01*
X177292000Y-129794000D02*
X178308000Y-129794000D01*
X180086000Y-128016000D02*
X178308000Y-129794000D01*
X180086000Y-100584000D02*
X180086000Y-128016000D01*
X180086000Y-99314000D02*
X178816000Y-99314000D01*
X134334000Y-115824000D02*
X138684000Y-115824000D01*
X131286000Y-118872000D02*
X134334000Y-115824000D01*
D21*
G36*
X181483000Y-154178000D02*
X123317000Y-154178000D01*
X123317000Y-142820963D01*
X154431714Y-142820963D01*
X154682534Y-143427995D01*
X155146563Y-143892834D01*
X155753155Y-144144713D01*
X156409963Y-144145286D01*
X157016995Y-143894466D01*
X157481834Y-143430437D01*
X157733713Y-142823845D01*
X157734286Y-142167037D01*
X157483466Y-141560005D01*
X157019437Y-141095166D01*
X156412845Y-140843287D01*
X155756037Y-140842714D01*
X155149005Y-141093534D01*
X154684166Y-141557563D01*
X154432287Y-142164155D01*
X154431714Y-142820963D01*
X123317000Y-142820963D01*
X123317000Y-138938000D01*
X125570655Y-138938000D01*
X125684729Y-139511489D01*
X126009585Y-139997670D01*
X126495766Y-140322526D01*
X127069255Y-140436600D01*
X127438745Y-140436600D01*
X128012234Y-140322526D01*
X128498415Y-139997670D01*
X128823271Y-139511489D01*
X128937345Y-138938000D01*
X128823271Y-138364511D01*
X128498415Y-137878330D01*
X128292831Y-137740963D01*
X154431714Y-137740963D01*
X154682534Y-138347995D01*
X155146563Y-138812834D01*
X155753155Y-139064713D01*
X156409963Y-139065286D01*
X157016995Y-138814466D01*
X157481834Y-138350437D01*
X157733713Y-137743845D01*
X157734286Y-137087037D01*
X157483466Y-136480005D01*
X157019437Y-136015166D01*
X156412845Y-135763287D01*
X155756037Y-135762714D01*
X155149005Y-136013534D01*
X154684166Y-136477563D01*
X154432287Y-137084155D01*
X154431714Y-137740963D01*
X128292831Y-137740963D01*
X128012234Y-137553474D01*
X127438745Y-137439400D01*
X127069255Y-137439400D01*
X126495766Y-137553474D01*
X126009585Y-137878330D01*
X125684729Y-138364511D01*
X125570655Y-138938000D01*
X123317000Y-138938000D01*
X123317000Y-131318000D01*
X125570655Y-131318000D01*
X125684729Y-131891489D01*
X126009585Y-132377670D01*
X126324366Y-132588000D01*
X126009585Y-132798330D01*
X125684729Y-133284511D01*
X125570655Y-133858000D01*
X125684729Y-134431489D01*
X126009585Y-134917670D01*
X126495766Y-135242526D01*
X127069255Y-135356600D01*
X127438745Y-135356600D01*
X128012234Y-135242526D01*
X128498415Y-134917670D01*
X128823271Y-134431489D01*
X128937345Y-133858000D01*
X128823271Y-133284511D01*
X128498415Y-132798330D01*
X128183634Y-132588000D01*
X128498415Y-132377670D01*
X128823271Y-131891489D01*
X128937345Y-131318000D01*
X128823271Y-130744511D01*
X128498415Y-130258330D01*
X128484087Y-130248757D01*
X128505317Y-130244762D01*
X128721441Y-130105690D01*
X128866431Y-129893490D01*
X128917440Y-129641600D01*
X128917440Y-127914400D01*
X128873162Y-127679083D01*
X128734090Y-127462959D01*
X128521890Y-127317969D01*
X128270000Y-127266960D01*
X126238000Y-127266960D01*
X126002683Y-127311238D01*
X125786559Y-127450310D01*
X125641569Y-127662510D01*
X125590560Y-127914400D01*
X125590560Y-129641600D01*
X125634838Y-129876917D01*
X125773910Y-130093041D01*
X125986110Y-130238031D01*
X126027439Y-130246400D01*
X126009585Y-130258330D01*
X125684729Y-130744511D01*
X125570655Y-131318000D01*
X123317000Y-131318000D01*
X123317000Y-123873338D01*
X148220190Y-123873338D01*
X148430686Y-124382777D01*
X148820113Y-124772884D01*
X149329184Y-124984269D01*
X149880398Y-124984750D01*
X150389837Y-124774254D01*
X150779944Y-124384827D01*
X150991329Y-123875756D01*
X150991810Y-123324542D01*
X150781314Y-122815103D01*
X150391887Y-122424996D01*
X149882816Y-122213611D01*
X149331602Y-122213130D01*
X148822163Y-122423626D01*
X148432056Y-122813053D01*
X148220671Y-123322124D01*
X148220190Y-123873338D01*
X123317000Y-123873338D01*
X123317000Y-119057167D01*
X130350838Y-119057167D01*
X130492883Y-119400943D01*
X130755673Y-119664192D01*
X131099201Y-119806838D01*
X131471167Y-119807162D01*
X131814943Y-119665117D01*
X132078192Y-119402327D01*
X132078355Y-119401935D01*
X132488832Y-118991458D01*
X148220190Y-118991458D01*
X148430686Y-119500897D01*
X148820113Y-119891004D01*
X149329184Y-120102389D01*
X149880398Y-120102870D01*
X150389837Y-119892374D01*
X150779944Y-119502947D01*
X150991329Y-118993876D01*
X150991810Y-118442662D01*
X150781314Y-117933223D01*
X150391887Y-117543116D01*
X149882816Y-117331731D01*
X149331602Y-117331250D01*
X148822163Y-117541746D01*
X148432056Y-117931173D01*
X148220671Y-118440244D01*
X148220190Y-118991458D01*
X132488832Y-118991458D01*
X134721290Y-116759000D01*
X138683184Y-116759000D01*
X138869167Y-116759162D01*
X139212943Y-116617117D01*
X139476192Y-116354327D01*
X139618838Y-116010799D01*
X139619162Y-115638833D01*
X139477117Y-115295057D01*
X139214327Y-115031808D01*
X138870799Y-114889162D01*
X138498833Y-114888838D01*
X138498441Y-114889000D01*
X135285638Y-114889000D01*
X135408811Y-114806698D01*
X135719880Y-114341151D01*
X135829113Y-113792000D01*
X135719880Y-113242849D01*
X135408811Y-112777302D01*
X135026725Y-112522000D01*
X135408811Y-112266698D01*
X135719880Y-111801151D01*
X135829113Y-111252000D01*
X135719880Y-110702849D01*
X135408811Y-110237302D01*
X135026725Y-109982000D01*
X135408811Y-109726698D01*
X135719880Y-109261151D01*
X135829113Y-108712000D01*
X135719880Y-108162849D01*
X135408811Y-107697302D01*
X135026725Y-107442000D01*
X135408811Y-107186698D01*
X135719880Y-106721151D01*
X135829113Y-106172000D01*
X135719880Y-105622849D01*
X135408811Y-105157302D01*
X134943264Y-104846233D01*
X134394113Y-104737000D01*
X134337887Y-104737000D01*
X133788736Y-104846233D01*
X133323189Y-105157302D01*
X133012120Y-105622849D01*
X132902887Y-106172000D01*
X133012120Y-106721151D01*
X133323189Y-107186698D01*
X133705275Y-107442000D01*
X133323189Y-107697302D01*
X133012120Y-108162849D01*
X132902887Y-108712000D01*
X133012120Y-109261151D01*
X133323189Y-109726698D01*
X133705275Y-109982000D01*
X133323189Y-110237302D01*
X133012120Y-110702849D01*
X132902887Y-111252000D01*
X133012120Y-111801151D01*
X133323189Y-112266698D01*
X133705275Y-112522000D01*
X133323189Y-112777302D01*
X133012120Y-113242849D01*
X132902887Y-113792000D01*
X133012120Y-114341151D01*
X133323189Y-114806698D01*
X133764535Y-115101596D01*
X133672855Y-115162855D01*
X130625146Y-118210564D01*
X130493808Y-118341673D01*
X130351162Y-118685201D01*
X130350838Y-119057167D01*
X123317000Y-119057167D01*
X123317000Y-111252000D01*
X125282887Y-111252000D01*
X125392120Y-111801151D01*
X125703189Y-112266698D01*
X126085275Y-112522000D01*
X125703189Y-112777302D01*
X125392120Y-113242849D01*
X125282887Y-113792000D01*
X125392120Y-114341151D01*
X125703189Y-114806698D01*
X126168736Y-115117767D01*
X126717887Y-115227000D01*
X126774113Y-115227000D01*
X127323264Y-115117767D01*
X127788811Y-114806698D01*
X128099880Y-114341151D01*
X128209113Y-113792000D01*
X128099880Y-113242849D01*
X127788811Y-112777302D01*
X127406725Y-112522000D01*
X127788811Y-112266698D01*
X128099880Y-111801151D01*
X128209113Y-111252000D01*
X128099880Y-110702849D01*
X127788811Y-110237302D01*
X127323264Y-109926233D01*
X126774113Y-109817000D01*
X126717887Y-109817000D01*
X126168736Y-109926233D01*
X125703189Y-110237302D01*
X125392120Y-110702849D01*
X125282887Y-111252000D01*
X123317000Y-111252000D01*
X123317000Y-106172000D01*
X125282887Y-106172000D01*
X125392120Y-106721151D01*
X125703189Y-107186698D01*
X126168736Y-107497767D01*
X126717887Y-107607000D01*
X126774113Y-107607000D01*
X127323264Y-107497767D01*
X127788811Y-107186698D01*
X128099880Y-106721151D01*
X128209113Y-106172000D01*
X128099880Y-105622849D01*
X127788811Y-105157302D01*
X127323264Y-104846233D01*
X126774113Y-104737000D01*
X126717887Y-104737000D01*
X126168736Y-104846233D01*
X125703189Y-105157302D01*
X125392120Y-105622849D01*
X125282887Y-106172000D01*
X123317000Y-106172000D01*
X123317000Y-104140000D01*
X153476887Y-104140000D01*
X153586120Y-104689151D01*
X153897189Y-105154698D01*
X154279275Y-105410000D01*
X153897189Y-105665302D01*
X153586120Y-106130849D01*
X153476887Y-106680000D01*
X153586120Y-107229151D01*
X153897189Y-107694698D01*
X154279275Y-107950000D01*
X153897189Y-108205302D01*
X153586120Y-108670849D01*
X153476887Y-109220000D01*
X153586120Y-109769151D01*
X153897189Y-110234698D01*
X154279275Y-110490000D01*
X153897189Y-110745302D01*
X153586120Y-111210849D01*
X153476887Y-111760000D01*
X153586120Y-112309151D01*
X153897189Y-112774698D01*
X154279275Y-113030000D01*
X153897189Y-113285302D01*
X153586120Y-113750849D01*
X153476887Y-114300000D01*
X153586120Y-114849151D01*
X153897189Y-115314698D01*
X154279275Y-115570000D01*
X153897189Y-115825302D01*
X153586120Y-116290849D01*
X153476887Y-116840000D01*
X153586120Y-117389151D01*
X153897189Y-117854698D01*
X154279275Y-118110000D01*
X153897189Y-118365302D01*
X153586120Y-118830849D01*
X153476887Y-119380000D01*
X153586120Y-119929151D01*
X153897189Y-120394698D01*
X154279275Y-120650000D01*
X153897189Y-120905302D01*
X153586120Y-121370849D01*
X153476887Y-121920000D01*
X153586120Y-122469151D01*
X153897189Y-122934698D01*
X154362736Y-123245767D01*
X154911887Y-123355000D01*
X154968113Y-123355000D01*
X155517264Y-123245767D01*
X155982811Y-122934698D01*
X156293880Y-122469151D01*
X156403113Y-121920000D01*
X156293880Y-121370849D01*
X155982811Y-120905302D01*
X155600725Y-120650000D01*
X155982811Y-120394698D01*
X156293880Y-119929151D01*
X156403113Y-119380000D01*
X156293880Y-118830849D01*
X155982811Y-118365302D01*
X155600725Y-118110000D01*
X155982811Y-117854698D01*
X156293880Y-117389151D01*
X156403113Y-116840000D01*
X156293880Y-116290849D01*
X155982811Y-115825302D01*
X155600725Y-115570000D01*
X155982811Y-115314698D01*
X156293880Y-114849151D01*
X156403113Y-114300000D01*
X156293880Y-113750849D01*
X155982811Y-113285302D01*
X155600725Y-113030000D01*
X155982811Y-112774698D01*
X156293880Y-112309151D01*
X156403113Y-111760000D01*
X156293880Y-111210849D01*
X155982811Y-110745302D01*
X155600725Y-110490000D01*
X155982811Y-110234698D01*
X156293880Y-109769151D01*
X156403113Y-109220000D01*
X156293880Y-108670849D01*
X155982811Y-108205302D01*
X155600725Y-107950000D01*
X155982811Y-107694698D01*
X156293880Y-107229151D01*
X156403113Y-106680000D01*
X156293880Y-106130849D01*
X155982811Y-105665302D01*
X155600725Y-105410000D01*
X155982811Y-105154698D01*
X156293880Y-104689151D01*
X156403113Y-104140000D01*
X161096887Y-104140000D01*
X161206120Y-104689151D01*
X161517189Y-105154698D01*
X161899275Y-105410000D01*
X161517189Y-105665302D01*
X161206120Y-106130849D01*
X161096887Y-106680000D01*
X161206120Y-107229151D01*
X161517189Y-107694698D01*
X161899275Y-107950000D01*
X161517189Y-108205302D01*
X161206120Y-108670849D01*
X161096887Y-109220000D01*
X161206120Y-109769151D01*
X161517189Y-110234698D01*
X161899275Y-110490000D01*
X161517189Y-110745302D01*
X161206120Y-111210849D01*
X161096887Y-111760000D01*
X161206120Y-112309151D01*
X161517189Y-112774698D01*
X161899275Y-113030000D01*
X161517189Y-113285302D01*
X161206120Y-113750849D01*
X161096887Y-114300000D01*
X161206120Y-114849151D01*
X161517189Y-115314698D01*
X161899275Y-115570000D01*
X161517189Y-115825302D01*
X161206120Y-116290849D01*
X161096887Y-116840000D01*
X161206120Y-117389151D01*
X161517189Y-117854698D01*
X161899275Y-118110000D01*
X161517189Y-118365302D01*
X161206120Y-118830849D01*
X161096887Y-119380000D01*
X161206120Y-119929151D01*
X161517189Y-120394698D01*
X161899275Y-120650000D01*
X161517189Y-120905302D01*
X161206120Y-121370849D01*
X161096887Y-121920000D01*
X161206120Y-122469151D01*
X161517189Y-122934698D01*
X161899275Y-123190000D01*
X161517189Y-123445302D01*
X161206120Y-123910849D01*
X161096887Y-124460000D01*
X161206120Y-125009151D01*
X161517189Y-125474698D01*
X161982736Y-125785767D01*
X162531887Y-125895000D01*
X162588113Y-125895000D01*
X163137264Y-125785767D01*
X163602811Y-125474698D01*
X163913880Y-125009151D01*
X164023113Y-124460000D01*
X163913880Y-123910849D01*
X163602811Y-123445302D01*
X163220725Y-123190000D01*
X163602811Y-122934698D01*
X163913880Y-122469151D01*
X164023113Y-121920000D01*
X163913880Y-121370849D01*
X163602811Y-120905302D01*
X163220725Y-120650000D01*
X163602811Y-120394698D01*
X163913880Y-119929151D01*
X164023113Y-119380000D01*
X163913880Y-118830849D01*
X163602811Y-118365302D01*
X163220725Y-118110000D01*
X163602811Y-117854698D01*
X163817651Y-117533167D01*
X167720838Y-117533167D01*
X167721000Y-117533559D01*
X167721000Y-122427184D01*
X167720838Y-122613167D01*
X167862883Y-122956943D01*
X168125673Y-123220192D01*
X168469201Y-123362838D01*
X168841167Y-123363162D01*
X169184943Y-123221117D01*
X169448192Y-122958327D01*
X169590838Y-122614799D01*
X169591162Y-122242833D01*
X169591000Y-122242441D01*
X169591000Y-117348816D01*
X169591162Y-117162833D01*
X169449117Y-116819057D01*
X169186327Y-116555808D01*
X168842799Y-116413162D01*
X168470833Y-116412838D01*
X168127057Y-116554883D01*
X167863808Y-116817673D01*
X167721162Y-117161201D01*
X167720838Y-117533167D01*
X163817651Y-117533167D01*
X163913880Y-117389151D01*
X164023113Y-116840000D01*
X163913880Y-116290849D01*
X163602811Y-115825302D01*
X163220725Y-115570000D01*
X163602811Y-115314698D01*
X163913880Y-114849151D01*
X164023113Y-114300000D01*
X163913880Y-113750849D01*
X163602811Y-113285302D01*
X163220725Y-113030000D01*
X163602811Y-112774698D01*
X163913880Y-112309151D01*
X164023113Y-111760000D01*
X163913880Y-111210849D01*
X163602811Y-110745302D01*
X163220725Y-110490000D01*
X163602811Y-110234698D01*
X163913880Y-109769151D01*
X164023113Y-109220000D01*
X163913880Y-108670849D01*
X163602811Y-108205302D01*
X163220725Y-107950000D01*
X163602811Y-107694698D01*
X163913880Y-107229151D01*
X164023113Y-106680000D01*
X163913880Y-106130849D01*
X163602811Y-105665302D01*
X163220725Y-105410000D01*
X163602811Y-105154698D01*
X163913880Y-104689151D01*
X164023113Y-104140000D01*
X163913880Y-103590849D01*
X163895384Y-103563167D01*
X170006838Y-103563167D01*
X170148883Y-103906943D01*
X170411673Y-104170192D01*
X170755201Y-104312838D01*
X171127167Y-104313162D01*
X171470943Y-104171117D01*
X171734192Y-103908327D01*
X171876838Y-103564799D01*
X171877162Y-103192833D01*
X171877000Y-103192441D01*
X171877000Y-100249000D01*
X179151000Y-100249000D01*
X179151000Y-127628710D01*
X178179822Y-128599888D01*
X178066248Y-128524000D01*
X178381029Y-128313670D01*
X178705885Y-127827489D01*
X178819959Y-127254000D01*
X178705885Y-126680511D01*
X178381029Y-126194330D01*
X177894848Y-125869474D01*
X177321359Y-125755400D01*
X177262641Y-125755400D01*
X176689152Y-125869474D01*
X176202971Y-126194330D01*
X176022000Y-126465172D01*
X175841029Y-126194330D01*
X175526248Y-125984000D01*
X175841029Y-125773670D01*
X176165885Y-125287489D01*
X176279959Y-124714000D01*
X176165885Y-124140511D01*
X175841029Y-123654330D01*
X175526248Y-123444000D01*
X175841029Y-123233670D01*
X176022000Y-122962828D01*
X176202971Y-123233670D01*
X176689152Y-123558526D01*
X177262641Y-123672600D01*
X177321359Y-123672600D01*
X177894848Y-123558526D01*
X178381029Y-123233670D01*
X178705885Y-122747489D01*
X178819959Y-122174000D01*
X178705885Y-121600511D01*
X178381029Y-121114330D01*
X178066248Y-120904000D01*
X178381029Y-120693670D01*
X178705885Y-120207489D01*
X178819959Y-119634000D01*
X178705885Y-119060511D01*
X178381029Y-118574330D01*
X177894848Y-118249474D01*
X177321359Y-118135400D01*
X177262641Y-118135400D01*
X176689152Y-118249474D01*
X176202971Y-118574330D01*
X176022000Y-118845172D01*
X175841029Y-118574330D01*
X175526248Y-118364000D01*
X175841029Y-118153670D01*
X176165885Y-117667489D01*
X176279959Y-117094000D01*
X176165885Y-116520511D01*
X175841029Y-116034330D01*
X175526248Y-115824000D01*
X175841029Y-115613670D01*
X176022000Y-115342828D01*
X176202971Y-115613670D01*
X176689152Y-115938526D01*
X177262641Y-116052600D01*
X177321359Y-116052600D01*
X177894848Y-115938526D01*
X178381029Y-115613670D01*
X178705885Y-115127489D01*
X178819959Y-114554000D01*
X178705885Y-113980511D01*
X178381029Y-113494330D01*
X178066248Y-113284000D01*
X178381029Y-113073670D01*
X178705885Y-112587489D01*
X178819959Y-112014000D01*
X178705885Y-111440511D01*
X178381029Y-110954330D01*
X178066248Y-110744000D01*
X178381029Y-110533670D01*
X178705885Y-110047489D01*
X178819959Y-109474000D01*
X178705885Y-108900511D01*
X178381029Y-108414330D01*
X177894848Y-108089474D01*
X177321359Y-107975400D01*
X177262641Y-107975400D01*
X176689152Y-108089474D01*
X176202971Y-108414330D01*
X176022000Y-108685172D01*
X175841029Y-108414330D01*
X175526248Y-108204000D01*
X175841029Y-107993670D01*
X176165885Y-107507489D01*
X176279959Y-106934000D01*
X176165885Y-106360511D01*
X175841029Y-105874330D01*
X175526248Y-105664000D01*
X175841029Y-105453670D01*
X176022000Y-105182828D01*
X176202971Y-105453670D01*
X176689152Y-105778526D01*
X177262641Y-105892600D01*
X177321359Y-105892600D01*
X177894848Y-105778526D01*
X178381029Y-105453670D01*
X178705885Y-104967489D01*
X178819959Y-104394000D01*
X178705885Y-103820511D01*
X178381029Y-103334330D01*
X178066248Y-103124000D01*
X178381029Y-102913670D01*
X178705885Y-102427489D01*
X178819959Y-101854000D01*
X178705885Y-101280511D01*
X178381029Y-100794330D01*
X177894848Y-100469474D01*
X177321359Y-100355400D01*
X177262641Y-100355400D01*
X176689152Y-100469474D01*
X176223558Y-100780574D01*
X176218762Y-100755083D01*
X176079690Y-100538959D01*
X175867490Y-100393969D01*
X175615600Y-100342960D01*
X173888400Y-100342960D01*
X173653083Y-100387238D01*
X173436959Y-100526310D01*
X173291969Y-100738510D01*
X173240960Y-100990400D01*
X173240960Y-102717600D01*
X173285238Y-102952917D01*
X173424310Y-103169041D01*
X173636510Y-103314031D01*
X173680131Y-103322864D01*
X173662971Y-103334330D01*
X173338115Y-103820511D01*
X173224041Y-104394000D01*
X173338115Y-104967489D01*
X173662971Y-105453670D01*
X173977752Y-105664000D01*
X173662971Y-105874330D01*
X173338115Y-106360511D01*
X173224041Y-106934000D01*
X173338115Y-107507489D01*
X173662971Y-107993670D01*
X173977752Y-108204000D01*
X173662971Y-108414330D01*
X173338115Y-108900511D01*
X173224041Y-109474000D01*
X173338115Y-110047489D01*
X173662971Y-110533670D01*
X174149152Y-110858526D01*
X174722641Y-110972600D01*
X174781359Y-110972600D01*
X175354848Y-110858526D01*
X175841029Y-110533670D01*
X176022000Y-110262828D01*
X176202971Y-110533670D01*
X176517752Y-110744000D01*
X176202971Y-110954330D01*
X175878115Y-111440511D01*
X175764041Y-112014000D01*
X175878115Y-112587489D01*
X176202971Y-113073670D01*
X176517752Y-113284000D01*
X176202971Y-113494330D01*
X176022000Y-113765172D01*
X175841029Y-113494330D01*
X175354848Y-113169474D01*
X174781359Y-113055400D01*
X174722641Y-113055400D01*
X174149152Y-113169474D01*
X173662971Y-113494330D01*
X173338115Y-113980511D01*
X173224041Y-114554000D01*
X173338115Y-115127489D01*
X173662971Y-115613670D01*
X173977752Y-115824000D01*
X173662971Y-116034330D01*
X173338115Y-116520511D01*
X173224041Y-117094000D01*
X173338115Y-117667489D01*
X173662971Y-118153670D01*
X173977752Y-118364000D01*
X173662971Y-118574330D01*
X173338115Y-119060511D01*
X173224041Y-119634000D01*
X173338115Y-120207489D01*
X173662971Y-120693670D01*
X173977752Y-120904000D01*
X173662971Y-121114330D01*
X173338115Y-121600511D01*
X173224041Y-122174000D01*
X173338115Y-122747489D01*
X173662971Y-123233670D01*
X173977752Y-123444000D01*
X173662971Y-123654330D01*
X173338115Y-124140511D01*
X173224041Y-124714000D01*
X173338115Y-125287489D01*
X173662971Y-125773670D01*
X173977752Y-125984000D01*
X173662971Y-126194330D01*
X173338115Y-126680511D01*
X173224041Y-127254000D01*
X173338115Y-127827489D01*
X173662971Y-128313670D01*
X173977752Y-128524000D01*
X173662971Y-128734330D01*
X173338115Y-129220511D01*
X173224041Y-129794000D01*
X173338115Y-130367489D01*
X173662971Y-130853670D01*
X174149152Y-131178526D01*
X174722641Y-131292600D01*
X174781359Y-131292600D01*
X175354848Y-131178526D01*
X175841029Y-130853670D01*
X176022000Y-130582828D01*
X176202971Y-130853670D01*
X176517752Y-131064000D01*
X176202971Y-131274330D01*
X175878115Y-131760511D01*
X175764041Y-132334000D01*
X175878115Y-132907489D01*
X176202971Y-133393670D01*
X176517752Y-133604000D01*
X176202971Y-133814330D01*
X176022000Y-134085172D01*
X175841029Y-133814330D01*
X175354848Y-133489474D01*
X174781359Y-133375400D01*
X174722641Y-133375400D01*
X174149152Y-133489474D01*
X173662971Y-133814330D01*
X173338115Y-134300511D01*
X173224041Y-134874000D01*
X173338115Y-135447489D01*
X173662971Y-135933670D01*
X173977752Y-136144000D01*
X173662971Y-136354330D01*
X173338115Y-136840511D01*
X173224041Y-137414000D01*
X173338115Y-137987489D01*
X173662971Y-138473670D01*
X173977752Y-138684000D01*
X173662971Y-138894330D01*
X173338115Y-139380511D01*
X173224041Y-139954000D01*
X173338115Y-140527489D01*
X173662971Y-141013670D01*
X173977752Y-141224000D01*
X173662971Y-141434330D01*
X173338115Y-141920511D01*
X173224041Y-142494000D01*
X173338115Y-143067489D01*
X173662971Y-143553670D01*
X173977752Y-143764000D01*
X173662971Y-143974330D01*
X173338115Y-144460511D01*
X173224041Y-145034000D01*
X173338115Y-145607489D01*
X173662971Y-146093670D01*
X173977752Y-146304000D01*
X173662971Y-146514330D01*
X173338115Y-147000511D01*
X173224041Y-147574000D01*
X173338115Y-148147489D01*
X173662971Y-148633670D01*
X174149152Y-148958526D01*
X174722641Y-149072600D01*
X174781359Y-149072600D01*
X175354848Y-148958526D01*
X175841029Y-148633670D01*
X176022000Y-148362828D01*
X176202971Y-148633670D01*
X176517752Y-148844000D01*
X176202971Y-149054330D01*
X175878115Y-149540511D01*
X175764041Y-150114000D01*
X175878115Y-150687489D01*
X176202971Y-151173670D01*
X176689152Y-151498526D01*
X177262641Y-151612600D01*
X177321359Y-151612600D01*
X177894848Y-151498526D01*
X178381029Y-151173670D01*
X178705885Y-150687489D01*
X178819959Y-150114000D01*
X178705885Y-149540511D01*
X178381029Y-149054330D01*
X178066248Y-148844000D01*
X178381029Y-148633670D01*
X178705885Y-148147489D01*
X178819959Y-147574000D01*
X178705885Y-147000511D01*
X178381029Y-146514330D01*
X178066248Y-146304000D01*
X178381029Y-146093670D01*
X178705885Y-145607489D01*
X178819959Y-145034000D01*
X178705885Y-144460511D01*
X178381029Y-143974330D01*
X177894848Y-143649474D01*
X177321359Y-143535400D01*
X177262641Y-143535400D01*
X176689152Y-143649474D01*
X176202971Y-143974330D01*
X176022000Y-144245172D01*
X175841029Y-143974330D01*
X175526248Y-143764000D01*
X175841029Y-143553670D01*
X176165885Y-143067489D01*
X176279959Y-142494000D01*
X176165885Y-141920511D01*
X175841029Y-141434330D01*
X175526248Y-141224000D01*
X175841029Y-141013670D01*
X176022000Y-140742828D01*
X176202971Y-141013670D01*
X176689152Y-141338526D01*
X177262641Y-141452600D01*
X177321359Y-141452600D01*
X177894848Y-141338526D01*
X178381029Y-141013670D01*
X178705885Y-140527489D01*
X178819959Y-139954000D01*
X178705885Y-139380511D01*
X178381029Y-138894330D01*
X177894848Y-138569474D01*
X177321359Y-138455400D01*
X177262641Y-138455400D01*
X176689152Y-138569474D01*
X176202971Y-138894330D01*
X176022000Y-139165172D01*
X175841029Y-138894330D01*
X175526248Y-138684000D01*
X175841029Y-138473670D01*
X176165885Y-137987489D01*
X176279959Y-137414000D01*
X176165885Y-136840511D01*
X175841029Y-136354330D01*
X175526248Y-136144000D01*
X175841029Y-135933670D01*
X176022000Y-135662828D01*
X176202971Y-135933670D01*
X176689152Y-136258526D01*
X177262641Y-136372600D01*
X177321359Y-136372600D01*
X177894848Y-136258526D01*
X178381029Y-135933670D01*
X178705885Y-135447489D01*
X178819959Y-134874000D01*
X178705885Y-134300511D01*
X178381029Y-133814330D01*
X178066248Y-133604000D01*
X178381029Y-133393670D01*
X178705885Y-132907489D01*
X178819959Y-132334000D01*
X178705885Y-131760511D01*
X178381029Y-131274330D01*
X178066248Y-131064000D01*
X178381029Y-130853670D01*
X178488294Y-130693137D01*
X178665809Y-130657827D01*
X178969145Y-130455145D01*
X180747145Y-128677145D01*
X180949827Y-128373809D01*
X181021000Y-128016000D01*
X181021000Y-99314000D01*
X180949827Y-98956191D01*
X180747145Y-98652855D01*
X180443809Y-98450173D01*
X180086000Y-98379000D01*
X170942000Y-98379000D01*
X170584191Y-98450173D01*
X170280855Y-98652855D01*
X170078173Y-98956191D01*
X170007000Y-99314000D01*
X170007000Y-103377184D01*
X170006838Y-103563167D01*
X163895384Y-103563167D01*
X163602811Y-103125302D01*
X163137264Y-102814233D01*
X162588113Y-102705000D01*
X162531887Y-102705000D01*
X161982736Y-102814233D01*
X161517189Y-103125302D01*
X161206120Y-103590849D01*
X161096887Y-104140000D01*
X156403113Y-104140000D01*
X156293880Y-103590849D01*
X155982811Y-103125302D01*
X155517264Y-102814233D01*
X154968113Y-102705000D01*
X154911887Y-102705000D01*
X154362736Y-102814233D01*
X153897189Y-103125302D01*
X153586120Y-103590849D01*
X153476887Y-104140000D01*
X123317000Y-104140000D01*
X123317000Y-97917000D01*
X181483000Y-97917000D01*
X181483000Y-154178000D01*
X181483000Y-154178000D01*
G37*
X181483000Y-154178000D02*
X123317000Y-154178000D01*
X123317000Y-142820963D01*
X154431714Y-142820963D01*
X154682534Y-143427995D01*
X155146563Y-143892834D01*
X155753155Y-144144713D01*
X156409963Y-144145286D01*
X157016995Y-143894466D01*
X157481834Y-143430437D01*
X157733713Y-142823845D01*
X157734286Y-142167037D01*
X157483466Y-141560005D01*
X157019437Y-141095166D01*
X156412845Y-140843287D01*
X155756037Y-140842714D01*
X155149005Y-141093534D01*
X154684166Y-141557563D01*
X154432287Y-142164155D01*
X154431714Y-142820963D01*
X123317000Y-142820963D01*
X123317000Y-138938000D01*
X125570655Y-138938000D01*
X125684729Y-139511489D01*
X126009585Y-139997670D01*
X126495766Y-140322526D01*
X127069255Y-140436600D01*
X127438745Y-140436600D01*
X128012234Y-140322526D01*
X128498415Y-139997670D01*
X128823271Y-139511489D01*
X128937345Y-138938000D01*
X128823271Y-138364511D01*
X128498415Y-137878330D01*
X128292831Y-137740963D01*
X154431714Y-137740963D01*
X154682534Y-138347995D01*
X155146563Y-138812834D01*
X155753155Y-139064713D01*
X156409963Y-139065286D01*
X157016995Y-138814466D01*
X157481834Y-138350437D01*
X157733713Y-137743845D01*
X157734286Y-137087037D01*
X157483466Y-136480005D01*
X157019437Y-136015166D01*
X156412845Y-135763287D01*
X155756037Y-135762714D01*
X155149005Y-136013534D01*
X154684166Y-136477563D01*
X154432287Y-137084155D01*
X154431714Y-137740963D01*
X128292831Y-137740963D01*
X128012234Y-137553474D01*
X127438745Y-137439400D01*
X127069255Y-137439400D01*
X126495766Y-137553474D01*
X126009585Y-137878330D01*
X125684729Y-138364511D01*
X125570655Y-138938000D01*
X123317000Y-138938000D01*
X123317000Y-131318000D01*
X125570655Y-131318000D01*
X125684729Y-131891489D01*
X126009585Y-132377670D01*
X126324366Y-132588000D01*
X126009585Y-132798330D01*
X125684729Y-133284511D01*
X125570655Y-133858000D01*
X125684729Y-134431489D01*
X126009585Y-134917670D01*
X126495766Y-135242526D01*
X127069255Y-135356600D01*
X127438745Y-135356600D01*
X128012234Y-135242526D01*
X128498415Y-134917670D01*
X128823271Y-134431489D01*
X128937345Y-133858000D01*
X128823271Y-133284511D01*
X128498415Y-132798330D01*
X128183634Y-132588000D01*
X128498415Y-132377670D01*
X128823271Y-131891489D01*
X128937345Y-131318000D01*
X128823271Y-130744511D01*
X128498415Y-130258330D01*
X128484087Y-130248757D01*
X128505317Y-130244762D01*
X128721441Y-130105690D01*
X128866431Y-129893490D01*
X128917440Y-129641600D01*
X128917440Y-127914400D01*
X128873162Y-127679083D01*
X128734090Y-127462959D01*
X128521890Y-127317969D01*
X128270000Y-127266960D01*
X126238000Y-127266960D01*
X126002683Y-127311238D01*
X125786559Y-127450310D01*
X125641569Y-127662510D01*
X125590560Y-127914400D01*
X125590560Y-129641600D01*
X125634838Y-129876917D01*
X125773910Y-130093041D01*
X125986110Y-130238031D01*
X126027439Y-130246400D01*
X126009585Y-130258330D01*
X125684729Y-130744511D01*
X125570655Y-131318000D01*
X123317000Y-131318000D01*
X123317000Y-123873338D01*
X148220190Y-123873338D01*
X148430686Y-124382777D01*
X148820113Y-124772884D01*
X149329184Y-124984269D01*
X149880398Y-124984750D01*
X150389837Y-124774254D01*
X150779944Y-124384827D01*
X150991329Y-123875756D01*
X150991810Y-123324542D01*
X150781314Y-122815103D01*
X150391887Y-122424996D01*
X149882816Y-122213611D01*
X149331602Y-122213130D01*
X148822163Y-122423626D01*
X148432056Y-122813053D01*
X148220671Y-123322124D01*
X148220190Y-123873338D01*
X123317000Y-123873338D01*
X123317000Y-119057167D01*
X130350838Y-119057167D01*
X130492883Y-119400943D01*
X130755673Y-119664192D01*
X131099201Y-119806838D01*
X131471167Y-119807162D01*
X131814943Y-119665117D01*
X132078192Y-119402327D01*
X132078355Y-119401935D01*
X132488832Y-118991458D01*
X148220190Y-118991458D01*
X148430686Y-119500897D01*
X148820113Y-119891004D01*
X149329184Y-120102389D01*
X149880398Y-120102870D01*
X150389837Y-119892374D01*
X150779944Y-119502947D01*
X150991329Y-118993876D01*
X150991810Y-118442662D01*
X150781314Y-117933223D01*
X150391887Y-117543116D01*
X149882816Y-117331731D01*
X149331602Y-117331250D01*
X148822163Y-117541746D01*
X148432056Y-117931173D01*
X148220671Y-118440244D01*
X148220190Y-118991458D01*
X132488832Y-118991458D01*
X134721290Y-116759000D01*
X138683184Y-116759000D01*
X138869167Y-116759162D01*
X139212943Y-116617117D01*
X139476192Y-116354327D01*
X139618838Y-116010799D01*
X139619162Y-115638833D01*
X139477117Y-115295057D01*
X139214327Y-115031808D01*
X138870799Y-114889162D01*
X138498833Y-114888838D01*
X138498441Y-114889000D01*
X135285638Y-114889000D01*
X135408811Y-114806698D01*
X135719880Y-114341151D01*
X135829113Y-113792000D01*
X135719880Y-113242849D01*
X135408811Y-112777302D01*
X135026725Y-112522000D01*
X135408811Y-112266698D01*
X135719880Y-111801151D01*
X135829113Y-111252000D01*
X135719880Y-110702849D01*
X135408811Y-110237302D01*
X135026725Y-109982000D01*
X135408811Y-109726698D01*
X135719880Y-109261151D01*
X135829113Y-108712000D01*
X135719880Y-108162849D01*
X135408811Y-107697302D01*
X135026725Y-107442000D01*
X135408811Y-107186698D01*
X135719880Y-106721151D01*
X135829113Y-106172000D01*
X135719880Y-105622849D01*
X135408811Y-105157302D01*
X134943264Y-104846233D01*
X134394113Y-104737000D01*
X134337887Y-104737000D01*
X133788736Y-104846233D01*
X133323189Y-105157302D01*
X133012120Y-105622849D01*
X132902887Y-106172000D01*
X133012120Y-106721151D01*
X133323189Y-107186698D01*
X133705275Y-107442000D01*
X133323189Y-107697302D01*
X133012120Y-108162849D01*
X132902887Y-108712000D01*
X133012120Y-109261151D01*
X133323189Y-109726698D01*
X133705275Y-109982000D01*
X133323189Y-110237302D01*
X133012120Y-110702849D01*
X132902887Y-111252000D01*
X133012120Y-111801151D01*
X133323189Y-112266698D01*
X133705275Y-112522000D01*
X133323189Y-112777302D01*
X133012120Y-113242849D01*
X132902887Y-113792000D01*
X133012120Y-114341151D01*
X133323189Y-114806698D01*
X133764535Y-115101596D01*
X133672855Y-115162855D01*
X130625146Y-118210564D01*
X130493808Y-118341673D01*
X130351162Y-118685201D01*
X130350838Y-119057167D01*
X123317000Y-119057167D01*
X123317000Y-111252000D01*
X125282887Y-111252000D01*
X125392120Y-111801151D01*
X125703189Y-112266698D01*
X126085275Y-112522000D01*
X125703189Y-112777302D01*
X125392120Y-113242849D01*
X125282887Y-113792000D01*
X125392120Y-114341151D01*
X125703189Y-114806698D01*
X126168736Y-115117767D01*
X126717887Y-115227000D01*
X126774113Y-115227000D01*
X127323264Y-115117767D01*
X127788811Y-114806698D01*
X128099880Y-114341151D01*
X128209113Y-113792000D01*
X128099880Y-113242849D01*
X127788811Y-112777302D01*
X127406725Y-112522000D01*
X127788811Y-112266698D01*
X128099880Y-111801151D01*
X128209113Y-111252000D01*
X128099880Y-110702849D01*
X127788811Y-110237302D01*
X127323264Y-109926233D01*
X126774113Y-109817000D01*
X126717887Y-109817000D01*
X126168736Y-109926233D01*
X125703189Y-110237302D01*
X125392120Y-110702849D01*
X125282887Y-111252000D01*
X123317000Y-111252000D01*
X123317000Y-106172000D01*
X125282887Y-106172000D01*
X125392120Y-106721151D01*
X125703189Y-107186698D01*
X126168736Y-107497767D01*
X126717887Y-107607000D01*
X126774113Y-107607000D01*
X127323264Y-107497767D01*
X127788811Y-107186698D01*
X128099880Y-106721151D01*
X128209113Y-106172000D01*
X128099880Y-105622849D01*
X127788811Y-105157302D01*
X127323264Y-104846233D01*
X126774113Y-104737000D01*
X126717887Y-104737000D01*
X126168736Y-104846233D01*
X125703189Y-105157302D01*
X125392120Y-105622849D01*
X125282887Y-106172000D01*
X123317000Y-106172000D01*
X123317000Y-104140000D01*
X153476887Y-104140000D01*
X153586120Y-104689151D01*
X153897189Y-105154698D01*
X154279275Y-105410000D01*
X153897189Y-105665302D01*
X153586120Y-106130849D01*
X153476887Y-106680000D01*
X153586120Y-107229151D01*
X153897189Y-107694698D01*
X154279275Y-107950000D01*
X153897189Y-108205302D01*
X153586120Y-108670849D01*
X153476887Y-109220000D01*
X153586120Y-109769151D01*
X153897189Y-110234698D01*
X154279275Y-110490000D01*
X153897189Y-110745302D01*
X153586120Y-111210849D01*
X153476887Y-111760000D01*
X153586120Y-112309151D01*
X153897189Y-112774698D01*
X154279275Y-113030000D01*
X153897189Y-113285302D01*
X153586120Y-113750849D01*
X153476887Y-114300000D01*
X153586120Y-114849151D01*
X153897189Y-115314698D01*
X154279275Y-115570000D01*
X153897189Y-115825302D01*
X153586120Y-116290849D01*
X153476887Y-116840000D01*
X153586120Y-117389151D01*
X153897189Y-117854698D01*
X154279275Y-118110000D01*
X153897189Y-118365302D01*
X153586120Y-118830849D01*
X153476887Y-119380000D01*
X153586120Y-119929151D01*
X153897189Y-120394698D01*
X154279275Y-120650000D01*
X153897189Y-120905302D01*
X153586120Y-121370849D01*
X153476887Y-121920000D01*
X153586120Y-122469151D01*
X153897189Y-122934698D01*
X154362736Y-123245767D01*
X154911887Y-123355000D01*
X154968113Y-123355000D01*
X155517264Y-123245767D01*
X155982811Y-122934698D01*
X156293880Y-122469151D01*
X156403113Y-121920000D01*
X156293880Y-121370849D01*
X155982811Y-120905302D01*
X155600725Y-120650000D01*
X155982811Y-120394698D01*
X156293880Y-119929151D01*
X156403113Y-119380000D01*
X156293880Y-118830849D01*
X155982811Y-118365302D01*
X155600725Y-118110000D01*
X155982811Y-117854698D01*
X156293880Y-117389151D01*
X156403113Y-116840000D01*
X156293880Y-116290849D01*
X155982811Y-115825302D01*
X155600725Y-115570000D01*
X155982811Y-115314698D01*
X156293880Y-114849151D01*
X156403113Y-114300000D01*
X156293880Y-113750849D01*
X155982811Y-113285302D01*
X155600725Y-113030000D01*
X155982811Y-112774698D01*
X156293880Y-112309151D01*
X156403113Y-111760000D01*
X156293880Y-111210849D01*
X155982811Y-110745302D01*
X155600725Y-110490000D01*
X155982811Y-110234698D01*
X156293880Y-109769151D01*
X156403113Y-109220000D01*
X156293880Y-108670849D01*
X155982811Y-108205302D01*
X155600725Y-107950000D01*
X155982811Y-107694698D01*
X156293880Y-107229151D01*
X156403113Y-106680000D01*
X156293880Y-106130849D01*
X155982811Y-105665302D01*
X155600725Y-105410000D01*
X155982811Y-105154698D01*
X156293880Y-104689151D01*
X156403113Y-104140000D01*
X161096887Y-104140000D01*
X161206120Y-104689151D01*
X161517189Y-105154698D01*
X161899275Y-105410000D01*
X161517189Y-105665302D01*
X161206120Y-106130849D01*
X161096887Y-106680000D01*
X161206120Y-107229151D01*
X161517189Y-107694698D01*
X161899275Y-107950000D01*
X161517189Y-108205302D01*
X161206120Y-108670849D01*
X161096887Y-109220000D01*
X161206120Y-109769151D01*
X161517189Y-110234698D01*
X161899275Y-110490000D01*
X161517189Y-110745302D01*
X161206120Y-111210849D01*
X161096887Y-111760000D01*
X161206120Y-112309151D01*
X161517189Y-112774698D01*
X161899275Y-113030000D01*
X161517189Y-113285302D01*
X161206120Y-113750849D01*
X161096887Y-114300000D01*
X161206120Y-114849151D01*
X161517189Y-115314698D01*
X161899275Y-115570000D01*
X161517189Y-115825302D01*
X161206120Y-116290849D01*
X161096887Y-116840000D01*
X161206120Y-117389151D01*
X161517189Y-117854698D01*
X161899275Y-118110000D01*
X161517189Y-118365302D01*
X161206120Y-118830849D01*
X161096887Y-119380000D01*
X161206120Y-119929151D01*
X161517189Y-120394698D01*
X161899275Y-120650000D01*
X161517189Y-120905302D01*
X161206120Y-121370849D01*
X161096887Y-121920000D01*
X161206120Y-122469151D01*
X161517189Y-122934698D01*
X161899275Y-123190000D01*
X161517189Y-123445302D01*
X161206120Y-123910849D01*
X161096887Y-124460000D01*
X161206120Y-125009151D01*
X161517189Y-125474698D01*
X161982736Y-125785767D01*
X162531887Y-125895000D01*
X162588113Y-125895000D01*
X163137264Y-125785767D01*
X163602811Y-125474698D01*
X163913880Y-125009151D01*
X164023113Y-124460000D01*
X163913880Y-123910849D01*
X163602811Y-123445302D01*
X163220725Y-123190000D01*
X163602811Y-122934698D01*
X163913880Y-122469151D01*
X164023113Y-121920000D01*
X163913880Y-121370849D01*
X163602811Y-120905302D01*
X163220725Y-120650000D01*
X163602811Y-120394698D01*
X163913880Y-119929151D01*
X164023113Y-119380000D01*
X163913880Y-118830849D01*
X163602811Y-118365302D01*
X163220725Y-118110000D01*
X163602811Y-117854698D01*
X163817651Y-117533167D01*
X167720838Y-117533167D01*
X167721000Y-117533559D01*
X167721000Y-122427184D01*
X167720838Y-122613167D01*
X167862883Y-122956943D01*
X168125673Y-123220192D01*
X168469201Y-123362838D01*
X168841167Y-123363162D01*
X169184943Y-123221117D01*
X169448192Y-122958327D01*
X169590838Y-122614799D01*
X169591162Y-122242833D01*
X169591000Y-122242441D01*
X169591000Y-117348816D01*
X169591162Y-117162833D01*
X169449117Y-116819057D01*
X169186327Y-116555808D01*
X168842799Y-116413162D01*
X168470833Y-116412838D01*
X168127057Y-116554883D01*
X167863808Y-116817673D01*
X167721162Y-117161201D01*
X167720838Y-117533167D01*
X163817651Y-117533167D01*
X163913880Y-117389151D01*
X164023113Y-116840000D01*
X163913880Y-116290849D01*
X163602811Y-115825302D01*
X163220725Y-115570000D01*
X163602811Y-115314698D01*
X163913880Y-114849151D01*
X164023113Y-114300000D01*
X163913880Y-113750849D01*
X163602811Y-113285302D01*
X163220725Y-113030000D01*
X163602811Y-112774698D01*
X163913880Y-112309151D01*
X164023113Y-111760000D01*
X163913880Y-111210849D01*
X163602811Y-110745302D01*
X163220725Y-110490000D01*
X163602811Y-110234698D01*
X163913880Y-109769151D01*
X164023113Y-109220000D01*
X163913880Y-108670849D01*
X163602811Y-108205302D01*
X163220725Y-107950000D01*
X163602811Y-107694698D01*
X163913880Y-107229151D01*
X164023113Y-106680000D01*
X163913880Y-106130849D01*
X163602811Y-105665302D01*
X163220725Y-105410000D01*
X163602811Y-105154698D01*
X163913880Y-104689151D01*
X164023113Y-104140000D01*
X163913880Y-103590849D01*
X163895384Y-103563167D01*
X170006838Y-103563167D01*
X170148883Y-103906943D01*
X170411673Y-104170192D01*
X170755201Y-104312838D01*
X171127167Y-104313162D01*
X171470943Y-104171117D01*
X171734192Y-103908327D01*
X171876838Y-103564799D01*
X171877162Y-103192833D01*
X171877000Y-103192441D01*
X171877000Y-100249000D01*
X179151000Y-100249000D01*
X179151000Y-127628710D01*
X178179822Y-128599888D01*
X178066248Y-128524000D01*
X178381029Y-128313670D01*
X178705885Y-127827489D01*
X178819959Y-127254000D01*
X178705885Y-126680511D01*
X178381029Y-126194330D01*
X177894848Y-125869474D01*
X177321359Y-125755400D01*
X177262641Y-125755400D01*
X176689152Y-125869474D01*
X176202971Y-126194330D01*
X176022000Y-126465172D01*
X175841029Y-126194330D01*
X175526248Y-125984000D01*
X175841029Y-125773670D01*
X176165885Y-125287489D01*
X176279959Y-124714000D01*
X176165885Y-124140511D01*
X175841029Y-123654330D01*
X175526248Y-123444000D01*
X175841029Y-123233670D01*
X176022000Y-122962828D01*
X176202971Y-123233670D01*
X176689152Y-123558526D01*
X177262641Y-123672600D01*
X177321359Y-123672600D01*
X177894848Y-123558526D01*
X178381029Y-123233670D01*
X178705885Y-122747489D01*
X178819959Y-122174000D01*
X178705885Y-121600511D01*
X178381029Y-121114330D01*
X178066248Y-120904000D01*
X178381029Y-120693670D01*
X178705885Y-120207489D01*
X178819959Y-119634000D01*
X178705885Y-119060511D01*
X178381029Y-118574330D01*
X177894848Y-118249474D01*
X177321359Y-118135400D01*
X177262641Y-118135400D01*
X176689152Y-118249474D01*
X176202971Y-118574330D01*
X176022000Y-118845172D01*
X175841029Y-118574330D01*
X175526248Y-118364000D01*
X175841029Y-118153670D01*
X176165885Y-117667489D01*
X176279959Y-117094000D01*
X176165885Y-116520511D01*
X175841029Y-116034330D01*
X175526248Y-115824000D01*
X175841029Y-115613670D01*
X176022000Y-115342828D01*
X176202971Y-115613670D01*
X176689152Y-115938526D01*
X177262641Y-116052600D01*
X177321359Y-116052600D01*
X177894848Y-115938526D01*
X178381029Y-115613670D01*
X178705885Y-115127489D01*
X178819959Y-114554000D01*
X178705885Y-113980511D01*
X178381029Y-113494330D01*
X178066248Y-113284000D01*
X178381029Y-113073670D01*
X178705885Y-112587489D01*
X178819959Y-112014000D01*
X178705885Y-111440511D01*
X178381029Y-110954330D01*
X178066248Y-110744000D01*
X178381029Y-110533670D01*
X178705885Y-110047489D01*
X178819959Y-109474000D01*
X178705885Y-108900511D01*
X178381029Y-108414330D01*
X177894848Y-108089474D01*
X177321359Y-107975400D01*
X177262641Y-107975400D01*
X176689152Y-108089474D01*
X176202971Y-108414330D01*
X176022000Y-108685172D01*
X175841029Y-108414330D01*
X175526248Y-108204000D01*
X175841029Y-107993670D01*
X176165885Y-107507489D01*
X176279959Y-106934000D01*
X176165885Y-106360511D01*
X175841029Y-105874330D01*
X175526248Y-105664000D01*
X175841029Y-105453670D01*
X176022000Y-105182828D01*
X176202971Y-105453670D01*
X176689152Y-105778526D01*
X177262641Y-105892600D01*
X177321359Y-105892600D01*
X177894848Y-105778526D01*
X178381029Y-105453670D01*
X178705885Y-104967489D01*
X178819959Y-104394000D01*
X178705885Y-103820511D01*
X178381029Y-103334330D01*
X178066248Y-103124000D01*
X178381029Y-102913670D01*
X178705885Y-102427489D01*
X178819959Y-101854000D01*
X178705885Y-101280511D01*
X178381029Y-100794330D01*
X177894848Y-100469474D01*
X177321359Y-100355400D01*
X177262641Y-100355400D01*
X176689152Y-100469474D01*
X176223558Y-100780574D01*
X176218762Y-100755083D01*
X176079690Y-100538959D01*
X175867490Y-100393969D01*
X175615600Y-100342960D01*
X173888400Y-100342960D01*
X173653083Y-100387238D01*
X173436959Y-100526310D01*
X173291969Y-100738510D01*
X173240960Y-100990400D01*
X173240960Y-102717600D01*
X173285238Y-102952917D01*
X173424310Y-103169041D01*
X173636510Y-103314031D01*
X173680131Y-103322864D01*
X173662971Y-103334330D01*
X173338115Y-103820511D01*
X173224041Y-104394000D01*
X173338115Y-104967489D01*
X173662971Y-105453670D01*
X173977752Y-105664000D01*
X173662971Y-105874330D01*
X173338115Y-106360511D01*
X173224041Y-106934000D01*
X173338115Y-107507489D01*
X173662971Y-107993670D01*
X173977752Y-108204000D01*
X173662971Y-108414330D01*
X173338115Y-108900511D01*
X173224041Y-109474000D01*
X173338115Y-110047489D01*
X173662971Y-110533670D01*
X174149152Y-110858526D01*
X174722641Y-110972600D01*
X174781359Y-110972600D01*
X175354848Y-110858526D01*
X175841029Y-110533670D01*
X176022000Y-110262828D01*
X176202971Y-110533670D01*
X176517752Y-110744000D01*
X176202971Y-110954330D01*
X175878115Y-111440511D01*
X175764041Y-112014000D01*
X175878115Y-112587489D01*
X176202971Y-113073670D01*
X176517752Y-113284000D01*
X176202971Y-113494330D01*
X176022000Y-113765172D01*
X175841029Y-113494330D01*
X175354848Y-113169474D01*
X174781359Y-113055400D01*
X174722641Y-113055400D01*
X174149152Y-113169474D01*
X173662971Y-113494330D01*
X173338115Y-113980511D01*
X173224041Y-114554000D01*
X173338115Y-115127489D01*
X173662971Y-115613670D01*
X173977752Y-115824000D01*
X173662971Y-116034330D01*
X173338115Y-116520511D01*
X173224041Y-117094000D01*
X173338115Y-117667489D01*
X173662971Y-118153670D01*
X173977752Y-118364000D01*
X173662971Y-118574330D01*
X173338115Y-119060511D01*
X173224041Y-119634000D01*
X173338115Y-120207489D01*
X173662971Y-120693670D01*
X173977752Y-120904000D01*
X173662971Y-121114330D01*
X173338115Y-121600511D01*
X173224041Y-122174000D01*
X173338115Y-122747489D01*
X173662971Y-123233670D01*
X173977752Y-123444000D01*
X173662971Y-123654330D01*
X173338115Y-124140511D01*
X173224041Y-124714000D01*
X173338115Y-125287489D01*
X173662971Y-125773670D01*
X173977752Y-125984000D01*
X173662971Y-126194330D01*
X173338115Y-126680511D01*
X173224041Y-127254000D01*
X173338115Y-127827489D01*
X173662971Y-128313670D01*
X173977752Y-128524000D01*
X173662971Y-128734330D01*
X173338115Y-129220511D01*
X173224041Y-129794000D01*
X173338115Y-130367489D01*
X173662971Y-130853670D01*
X174149152Y-131178526D01*
X174722641Y-131292600D01*
X174781359Y-131292600D01*
X175354848Y-131178526D01*
X175841029Y-130853670D01*
X176022000Y-130582828D01*
X176202971Y-130853670D01*
X176517752Y-131064000D01*
X176202971Y-131274330D01*
X175878115Y-131760511D01*
X175764041Y-132334000D01*
X175878115Y-132907489D01*
X176202971Y-133393670D01*
X176517752Y-133604000D01*
X176202971Y-133814330D01*
X176022000Y-134085172D01*
X175841029Y-133814330D01*
X175354848Y-133489474D01*
X174781359Y-133375400D01*
X174722641Y-133375400D01*
X174149152Y-133489474D01*
X173662971Y-133814330D01*
X173338115Y-134300511D01*
X173224041Y-134874000D01*
X173338115Y-135447489D01*
X173662971Y-135933670D01*
X173977752Y-136144000D01*
X173662971Y-136354330D01*
X173338115Y-136840511D01*
X173224041Y-137414000D01*
X173338115Y-137987489D01*
X173662971Y-138473670D01*
X173977752Y-138684000D01*
X173662971Y-138894330D01*
X173338115Y-139380511D01*
X173224041Y-139954000D01*
X173338115Y-140527489D01*
X173662971Y-141013670D01*
X173977752Y-141224000D01*
X173662971Y-141434330D01*
X173338115Y-141920511D01*
X173224041Y-142494000D01*
X173338115Y-143067489D01*
X173662971Y-143553670D01*
X173977752Y-143764000D01*
X173662971Y-143974330D01*
X173338115Y-144460511D01*
X173224041Y-145034000D01*
X173338115Y-145607489D01*
X173662971Y-146093670D01*
X173977752Y-146304000D01*
X173662971Y-146514330D01*
X173338115Y-147000511D01*
X173224041Y-147574000D01*
X173338115Y-148147489D01*
X173662971Y-148633670D01*
X174149152Y-148958526D01*
X174722641Y-149072600D01*
X174781359Y-149072600D01*
X175354848Y-148958526D01*
X175841029Y-148633670D01*
X176022000Y-148362828D01*
X176202971Y-148633670D01*
X176517752Y-148844000D01*
X176202971Y-149054330D01*
X175878115Y-149540511D01*
X175764041Y-150114000D01*
X175878115Y-150687489D01*
X176202971Y-151173670D01*
X176689152Y-151498526D01*
X177262641Y-151612600D01*
X177321359Y-151612600D01*
X177894848Y-151498526D01*
X178381029Y-151173670D01*
X178705885Y-150687489D01*
X178819959Y-150114000D01*
X178705885Y-149540511D01*
X178381029Y-149054330D01*
X178066248Y-148844000D01*
X178381029Y-148633670D01*
X178705885Y-148147489D01*
X178819959Y-147574000D01*
X178705885Y-147000511D01*
X178381029Y-146514330D01*
X178066248Y-146304000D01*
X178381029Y-146093670D01*
X178705885Y-145607489D01*
X178819959Y-145034000D01*
X178705885Y-144460511D01*
X178381029Y-143974330D01*
X177894848Y-143649474D01*
X177321359Y-143535400D01*
X177262641Y-143535400D01*
X176689152Y-143649474D01*
X176202971Y-143974330D01*
X176022000Y-144245172D01*
X175841029Y-143974330D01*
X175526248Y-143764000D01*
X175841029Y-143553670D01*
X176165885Y-143067489D01*
X176279959Y-142494000D01*
X176165885Y-141920511D01*
X175841029Y-141434330D01*
X175526248Y-141224000D01*
X175841029Y-141013670D01*
X176022000Y-140742828D01*
X176202971Y-141013670D01*
X176689152Y-141338526D01*
X177262641Y-141452600D01*
X177321359Y-141452600D01*
X177894848Y-141338526D01*
X178381029Y-141013670D01*
X178705885Y-140527489D01*
X178819959Y-139954000D01*
X178705885Y-139380511D01*
X178381029Y-138894330D01*
X177894848Y-138569474D01*
X177321359Y-138455400D01*
X177262641Y-138455400D01*
X176689152Y-138569474D01*
X176202971Y-138894330D01*
X176022000Y-139165172D01*
X175841029Y-138894330D01*
X175526248Y-138684000D01*
X175841029Y-138473670D01*
X176165885Y-137987489D01*
X176279959Y-137414000D01*
X176165885Y-136840511D01*
X175841029Y-136354330D01*
X175526248Y-136144000D01*
X175841029Y-135933670D01*
X176022000Y-135662828D01*
X176202971Y-135933670D01*
X176689152Y-136258526D01*
X177262641Y-136372600D01*
X177321359Y-136372600D01*
X177894848Y-136258526D01*
X178381029Y-135933670D01*
X178705885Y-135447489D01*
X178819959Y-134874000D01*
X178705885Y-134300511D01*
X178381029Y-133814330D01*
X178066248Y-133604000D01*
X178381029Y-133393670D01*
X178705885Y-132907489D01*
X178819959Y-132334000D01*
X178705885Y-131760511D01*
X178381029Y-131274330D01*
X178066248Y-131064000D01*
X178381029Y-130853670D01*
X178488294Y-130693137D01*
X178665809Y-130657827D01*
X178969145Y-130455145D01*
X180747145Y-128677145D01*
X180949827Y-128373809D01*
X181021000Y-128016000D01*
X181021000Y-99314000D01*
X180949827Y-98956191D01*
X180747145Y-98652855D01*
X180443809Y-98450173D01*
X180086000Y-98379000D01*
X170942000Y-98379000D01*
X170584191Y-98450173D01*
X170280855Y-98652855D01*
X170078173Y-98956191D01*
X170007000Y-99314000D01*
X170007000Y-103377184D01*
X170006838Y-103563167D01*
X163895384Y-103563167D01*
X163602811Y-103125302D01*
X163137264Y-102814233D01*
X162588113Y-102705000D01*
X162531887Y-102705000D01*
X161982736Y-102814233D01*
X161517189Y-103125302D01*
X161206120Y-103590849D01*
X161096887Y-104140000D01*
X156403113Y-104140000D01*
X156293880Y-103590849D01*
X155982811Y-103125302D01*
X155517264Y-102814233D01*
X154968113Y-102705000D01*
X154911887Y-102705000D01*
X154362736Y-102814233D01*
X153897189Y-103125302D01*
X153586120Y-103590849D01*
X153476887Y-104140000D01*
X123317000Y-104140000D01*
X123317000Y-97917000D01*
X181483000Y-97917000D01*
X181483000Y-154178000D01*
M02*
