G04 #@! TF.FileFunction,Copper,L1,Top,Signal*
%FSLAX46Y46*%
G04 Gerber Fmt 4.6, Leading zero omitted, Abs format (unit mm)*
G04 Created by KiCad (PCBNEW 4.0.1-3.201512221402+6198~38~ubuntu14.04.1-stable) date Fri 08 Jan 2016 09:21:13 PM CST*
%MOMM*%
G01*
G04 APERTURE LIST*
%ADD10C,0.100000*%
%ADD11R,1.600000X2.000000*%
%ADD12R,2.000000X1.600000*%
%ADD13R,2.032000X1.727200*%
%ADD14O,2.032000X1.727200*%
%ADD15R,1.727200X1.727200*%
%ADD16O,1.727200X1.727200*%
%ADD17R,2.000000X1.700000*%
%ADD18R,1.700000X2.000000*%
%ADD19C,2.032000*%
%ADD20O,2.032000X2.032000*%
%ADD21O,1.600000X1.600000*%
%ADD22C,1.501140*%
%ADD23C,0.600000*%
%ADD24C,0.600000*%
%ADD25C,0.250000*%
%ADD26C,1.200000*%
%ADD27C,0.254000*%
G04 APERTURE END LIST*
D10*
D11*
X144780000Y-118904000D03*
X144780000Y-122904000D03*
D12*
X148812000Y-129032000D03*
X144812000Y-129032000D03*
D13*
X127254000Y-128778000D03*
D14*
X127254000Y-131318000D03*
X127254000Y-133858000D03*
X127254000Y-136398000D03*
X127254000Y-138938000D03*
X127254000Y-141478000D03*
D15*
X174752000Y-101854000D03*
D16*
X177292000Y-101854000D03*
X174752000Y-104394000D03*
X177292000Y-104394000D03*
X174752000Y-106934000D03*
X177292000Y-106934000D03*
X174752000Y-109474000D03*
X177292000Y-109474000D03*
X174752000Y-112014000D03*
X177292000Y-112014000D03*
X174752000Y-114554000D03*
X177292000Y-114554000D03*
X174752000Y-117094000D03*
X177292000Y-117094000D03*
X174752000Y-119634000D03*
X177292000Y-119634000D03*
X174752000Y-122174000D03*
X177292000Y-122174000D03*
X174752000Y-124714000D03*
X177292000Y-124714000D03*
X174752000Y-127254000D03*
X177292000Y-127254000D03*
X174752000Y-129794000D03*
X177292000Y-129794000D03*
X174752000Y-132334000D03*
X177292000Y-132334000D03*
X174752000Y-134874000D03*
X177292000Y-134874000D03*
X174752000Y-137414000D03*
X177292000Y-137414000D03*
X174752000Y-139954000D03*
X177292000Y-139954000D03*
X174752000Y-142494000D03*
X177292000Y-142494000D03*
X174752000Y-145034000D03*
X177292000Y-145034000D03*
X174752000Y-147574000D03*
X177292000Y-147574000D03*
X174752000Y-150114000D03*
X177292000Y-150114000D03*
D17*
X137954000Y-106172000D03*
X141954000Y-106172000D03*
X127286000Y-118872000D03*
X131286000Y-118872000D03*
X131286000Y-122174000D03*
X127286000Y-122174000D03*
D18*
X132080000Y-127540000D03*
X132080000Y-131540000D03*
D19*
X156083000Y-142494000D03*
X156083000Y-137414000D03*
D20*
X156083000Y-139954000D03*
D21*
X126746000Y-106172000D03*
X126746000Y-108712000D03*
X126746000Y-111252000D03*
X126746000Y-113792000D03*
X134366000Y-113792000D03*
X134366000Y-111252000D03*
X134366000Y-108712000D03*
X134366000Y-106172000D03*
X154940000Y-104140000D03*
X154940000Y-106680000D03*
X154940000Y-109220000D03*
X154940000Y-111760000D03*
X154940000Y-114300000D03*
X154940000Y-116840000D03*
X154940000Y-119380000D03*
X154940000Y-121920000D03*
X154940000Y-124460000D03*
X162560000Y-124460000D03*
X162560000Y-121920000D03*
X162560000Y-119380000D03*
X162560000Y-116840000D03*
X162560000Y-114300000D03*
X162560000Y-111760000D03*
X162560000Y-109220000D03*
X162560000Y-106680000D03*
X162560000Y-104140000D03*
D22*
X149606000Y-118717060D03*
X149606000Y-123598940D03*
D23*
X127286000Y-122174000D03*
X144812000Y-129032000D03*
X144780000Y-122904000D03*
X141954000Y-106172000D03*
X168656000Y-117348000D03*
X168656000Y-122428000D03*
X170942000Y-103378000D03*
X131286000Y-118872000D03*
X138684000Y-115824000D03*
D24*
X149606000Y-118717060D02*
X144966940Y-118717060D01*
X144966940Y-118717060D02*
X144780000Y-118904000D01*
X154940000Y-119380000D02*
X150268940Y-119380000D01*
X150268940Y-119380000D02*
X149606000Y-118717060D01*
X149606000Y-123598940D02*
X149606000Y-128238000D01*
X149606000Y-128238000D02*
X148812000Y-129032000D01*
X154940000Y-121920000D02*
X151284940Y-121920000D01*
X151284940Y-121920000D02*
X149606000Y-123598940D01*
X132080000Y-127540000D02*
X128492000Y-127540000D01*
X128492000Y-127540000D02*
X127254000Y-128778000D01*
X134366000Y-108712000D02*
X133858000Y-108712000D01*
X133858000Y-108712000D02*
X132334000Y-110236000D01*
X132334000Y-110236000D02*
X132334000Y-114808000D01*
X132334000Y-114808000D02*
X134874000Y-117348000D01*
X134874000Y-117348000D02*
X134874000Y-124746000D01*
X134874000Y-124746000D02*
X132080000Y-127540000D01*
X127476000Y-131540000D02*
X127254000Y-131318000D01*
X132080000Y-131540000D02*
X127476000Y-131540000D01*
X134366000Y-111252000D02*
X134874000Y-111252000D01*
X134874000Y-111252000D02*
X136398000Y-112776000D01*
X136398000Y-127222000D02*
X132080000Y-131540000D01*
X136398000Y-112776000D02*
X136398000Y-127222000D01*
D25*
X134366000Y-111252000D02*
X134747000Y-111252000D01*
D26*
X156083000Y-137414000D02*
X130556000Y-137414000D01*
X130556000Y-137414000D02*
X130556000Y-137668000D01*
X127254000Y-138938000D02*
X129286000Y-138938000D01*
X129540000Y-133858000D02*
X127254000Y-133858000D01*
X130556000Y-134874000D02*
X129540000Y-133858000D01*
X130556000Y-137668000D02*
X130556000Y-134874000D01*
X129286000Y-138938000D02*
X130556000Y-137668000D01*
D24*
X162560000Y-104140000D02*
X162560000Y-106680000D01*
X174752000Y-101854000D02*
X164846000Y-101854000D01*
X164846000Y-101854000D02*
X162560000Y-104140000D01*
X162560000Y-114300000D02*
X162814000Y-114300000D01*
X162814000Y-114300000D02*
X173228000Y-124714000D01*
X173228000Y-124714000D02*
X174752000Y-124714000D01*
X174752000Y-127254000D02*
X173482000Y-127254000D01*
X168656000Y-117348000D02*
X163068000Y-111760000D01*
X173482000Y-127254000D02*
X168656000Y-122428000D01*
X163068000Y-111760000D02*
X162560000Y-111760000D01*
X174752000Y-129794000D02*
X173228000Y-129794000D01*
X166878000Y-121158000D02*
X162560000Y-116840000D01*
X166878000Y-123444000D02*
X166878000Y-121158000D01*
X173228000Y-129794000D02*
X166878000Y-123444000D01*
X165100000Y-109220000D02*
X170942000Y-103378000D01*
X165100000Y-109220000D02*
X162560000Y-109220000D01*
X174752000Y-137414000D02*
X172212000Y-137414000D01*
X165608000Y-122428000D02*
X162560000Y-119380000D01*
X165608000Y-130810000D02*
X165608000Y-122428000D01*
X172212000Y-137414000D02*
X165608000Y-130810000D01*
X134366000Y-106172000D02*
X137954000Y-106172000D01*
X126746000Y-113792000D02*
X126746000Y-118332000D01*
X126746000Y-118332000D02*
X127286000Y-118872000D01*
X131286000Y-122174000D02*
X131286000Y-118872000D01*
X147828000Y-106680000D02*
X154940000Y-106680000D01*
X138684000Y-115824000D02*
X147828000Y-106680000D01*
X126746000Y-106172000D02*
X131318000Y-106172000D01*
X133350000Y-104140000D02*
X154940000Y-104140000D01*
X131318000Y-106172000D02*
X133350000Y-104140000D01*
D27*
G36*
X181483000Y-154178000D02*
X123317000Y-154178000D01*
X123317000Y-121324000D01*
X125638560Y-121324000D01*
X125638560Y-123024000D01*
X125682838Y-123259317D01*
X125821910Y-123475441D01*
X126034110Y-123620431D01*
X126286000Y-123671440D01*
X128286000Y-123671440D01*
X128521317Y-123627162D01*
X128737441Y-123488090D01*
X128882431Y-123275890D01*
X128933440Y-123024000D01*
X128933440Y-121324000D01*
X128889162Y-121088683D01*
X128750090Y-120872559D01*
X128537890Y-120727569D01*
X128286000Y-120676560D01*
X126286000Y-120676560D01*
X126050683Y-120720838D01*
X125834559Y-120859910D01*
X125689569Y-121072110D01*
X125638560Y-121324000D01*
X123317000Y-121324000D01*
X123317000Y-113792000D01*
X125282887Y-113792000D01*
X125392120Y-114341151D01*
X125703189Y-114806698D01*
X125811000Y-114878735D01*
X125811000Y-117592390D01*
X125689569Y-117770110D01*
X125638560Y-118022000D01*
X125638560Y-119722000D01*
X125682838Y-119957317D01*
X125821910Y-120173441D01*
X126034110Y-120318431D01*
X126286000Y-120369440D01*
X128286000Y-120369440D01*
X128521317Y-120325162D01*
X128737441Y-120186090D01*
X128882431Y-119973890D01*
X128933440Y-119722000D01*
X128933440Y-118022000D01*
X129638560Y-118022000D01*
X129638560Y-119722000D01*
X129682838Y-119957317D01*
X129821910Y-120173441D01*
X130034110Y-120318431D01*
X130286000Y-120369440D01*
X130351000Y-120369440D01*
X130351000Y-120676560D01*
X130286000Y-120676560D01*
X130050683Y-120720838D01*
X129834559Y-120859910D01*
X129689569Y-121072110D01*
X129638560Y-121324000D01*
X129638560Y-123024000D01*
X129682838Y-123259317D01*
X129821910Y-123475441D01*
X130034110Y-123620431D01*
X130286000Y-123671440D01*
X132286000Y-123671440D01*
X132521317Y-123627162D01*
X132737441Y-123488090D01*
X132882431Y-123275890D01*
X132933440Y-123024000D01*
X132933440Y-121324000D01*
X132889162Y-121088683D01*
X132750090Y-120872559D01*
X132537890Y-120727569D01*
X132286000Y-120676560D01*
X132221000Y-120676560D01*
X132221000Y-120369440D01*
X132286000Y-120369440D01*
X132521317Y-120325162D01*
X132737441Y-120186090D01*
X132882431Y-119973890D01*
X132933440Y-119722000D01*
X132933440Y-118022000D01*
X132889162Y-117786683D01*
X132750090Y-117570559D01*
X132537890Y-117425569D01*
X132286000Y-117374560D01*
X130286000Y-117374560D01*
X130050683Y-117418838D01*
X129834559Y-117557910D01*
X129689569Y-117770110D01*
X129638560Y-118022000D01*
X128933440Y-118022000D01*
X128889162Y-117786683D01*
X128750090Y-117570559D01*
X128537890Y-117425569D01*
X128286000Y-117374560D01*
X127681000Y-117374560D01*
X127681000Y-114878735D01*
X127788811Y-114806698D01*
X128099880Y-114341151D01*
X128209113Y-113792000D01*
X128099880Y-113242849D01*
X127788811Y-112777302D01*
X127323264Y-112466233D01*
X126774113Y-112357000D01*
X126717887Y-112357000D01*
X126168736Y-112466233D01*
X125703189Y-112777302D01*
X125392120Y-113242849D01*
X125282887Y-113792000D01*
X123317000Y-113792000D01*
X123317000Y-106172000D01*
X125282887Y-106172000D01*
X125392120Y-106721151D01*
X125703189Y-107186698D01*
X126085275Y-107442000D01*
X125703189Y-107697302D01*
X125392120Y-108162849D01*
X125282887Y-108712000D01*
X125392120Y-109261151D01*
X125703189Y-109726698D01*
X126168736Y-110037767D01*
X126717887Y-110147000D01*
X126774113Y-110147000D01*
X127323264Y-110037767D01*
X127788811Y-109726698D01*
X128099880Y-109261151D01*
X128209113Y-108712000D01*
X128099880Y-108162849D01*
X127788811Y-107697302D01*
X127406725Y-107442000D01*
X127788811Y-107186698D01*
X127842064Y-107107000D01*
X131318000Y-107107000D01*
X131675809Y-107035827D01*
X131979145Y-106833145D01*
X132968091Y-105844199D01*
X132902887Y-106172000D01*
X133012120Y-106721151D01*
X133323189Y-107186698D01*
X133705275Y-107442000D01*
X133323189Y-107697302D01*
X133012120Y-108162849D01*
X132994058Y-108253652D01*
X131672855Y-109574855D01*
X131470173Y-109878191D01*
X131399000Y-110236000D01*
X131399000Y-114808000D01*
X131470173Y-115165809D01*
X131672855Y-115469145D01*
X133939000Y-117735290D01*
X133939000Y-124358710D01*
X132405150Y-125892560D01*
X131230000Y-125892560D01*
X130994683Y-125936838D01*
X130778559Y-126075910D01*
X130633569Y-126288110D01*
X130582560Y-126540000D01*
X130582560Y-126605000D01*
X128492000Y-126605000D01*
X128134191Y-126676173D01*
X127830855Y-126878855D01*
X127442750Y-127266960D01*
X126238000Y-127266960D01*
X126002683Y-127311238D01*
X125786559Y-127450310D01*
X125641569Y-127662510D01*
X125590560Y-127914400D01*
X125590560Y-129641600D01*
X125634838Y-129876917D01*
X125773910Y-130093041D01*
X125986110Y-130238031D01*
X126027439Y-130246400D01*
X126009585Y-130258330D01*
X125684729Y-130744511D01*
X125570655Y-131318000D01*
X125684729Y-131891489D01*
X126009585Y-132377670D01*
X126324366Y-132588000D01*
X126009585Y-132798330D01*
X125684729Y-133284511D01*
X125570655Y-133858000D01*
X125684729Y-134431489D01*
X126009585Y-134917670D01*
X126324366Y-135128000D01*
X126009585Y-135338330D01*
X125684729Y-135824511D01*
X125570655Y-136398000D01*
X125684729Y-136971489D01*
X126009585Y-137457670D01*
X126324366Y-137668000D01*
X126009585Y-137878330D01*
X125684729Y-138364511D01*
X125570655Y-138938000D01*
X125684729Y-139511489D01*
X126009585Y-139997670D01*
X126324366Y-140208000D01*
X126009585Y-140418330D01*
X125684729Y-140904511D01*
X125570655Y-141478000D01*
X125684729Y-142051489D01*
X126009585Y-142537670D01*
X126495766Y-142862526D01*
X127069255Y-142976600D01*
X127438745Y-142976600D01*
X128012234Y-142862526D01*
X128498415Y-142537670D01*
X128823271Y-142051489D01*
X128937345Y-141478000D01*
X128823271Y-140904511D01*
X128498415Y-140418330D01*
X128183634Y-140208000D01*
X128236015Y-140173000D01*
X129286000Y-140173000D01*
X129758614Y-140078991D01*
X130159277Y-139811277D01*
X131321554Y-138649000D01*
X154983014Y-138649000D01*
X155025464Y-138691524D01*
X154883222Y-138786567D01*
X154525330Y-139322190D01*
X154399655Y-139954000D01*
X154525330Y-140585810D01*
X154883222Y-141121433D01*
X155418845Y-141479325D01*
X156050655Y-141605000D01*
X156115345Y-141605000D01*
X156747155Y-141479325D01*
X157282778Y-141121433D01*
X157640670Y-140585810D01*
X157766345Y-139954000D01*
X157640670Y-139322190D01*
X157282778Y-138786567D01*
X157140306Y-138691370D01*
X157481834Y-138350437D01*
X157733713Y-137743845D01*
X157734286Y-137087037D01*
X157483466Y-136480005D01*
X157019437Y-136015166D01*
X156412845Y-135763287D01*
X155756037Y-135762714D01*
X155149005Y-136013534D01*
X154983250Y-136179000D01*
X131791000Y-136179000D01*
X131791000Y-134874000D01*
X131696991Y-134401386D01*
X131429277Y-134000723D01*
X130413277Y-132984723D01*
X130012614Y-132717009D01*
X129540000Y-132623000D01*
X128236015Y-132623000D01*
X128183634Y-132588000D01*
X128352750Y-132475000D01*
X130582560Y-132475000D01*
X130582560Y-132540000D01*
X130626838Y-132775317D01*
X130765910Y-132991441D01*
X130978110Y-133136431D01*
X131230000Y-133187440D01*
X132930000Y-133187440D01*
X133165317Y-133143162D01*
X133381441Y-133004090D01*
X133526431Y-132791890D01*
X133577440Y-132540000D01*
X133577440Y-131364850D01*
X136710290Y-128232000D01*
X143164560Y-128232000D01*
X143164560Y-129832000D01*
X143208838Y-130067317D01*
X143347910Y-130283441D01*
X143560110Y-130428431D01*
X143812000Y-130479440D01*
X145812000Y-130479440D01*
X146047317Y-130435162D01*
X146263441Y-130296090D01*
X146408431Y-130083890D01*
X146459440Y-129832000D01*
X146459440Y-128232000D01*
X146415162Y-127996683D01*
X146276090Y-127780559D01*
X146063890Y-127635569D01*
X145812000Y-127584560D01*
X143812000Y-127584560D01*
X143576683Y-127628838D01*
X143360559Y-127767910D01*
X143215569Y-127980110D01*
X143164560Y-128232000D01*
X136710290Y-128232000D01*
X137059145Y-127883145D01*
X137261827Y-127579809D01*
X137333000Y-127222000D01*
X137333000Y-121904000D01*
X143332560Y-121904000D01*
X143332560Y-123904000D01*
X143376838Y-124139317D01*
X143515910Y-124355441D01*
X143728110Y-124500431D01*
X143980000Y-124551440D01*
X145580000Y-124551440D01*
X145815317Y-124507162D01*
X146031441Y-124368090D01*
X146176431Y-124155890D01*
X146227440Y-123904000D01*
X146227440Y-121904000D01*
X146183162Y-121668683D01*
X146044090Y-121452559D01*
X145831890Y-121307569D01*
X145580000Y-121256560D01*
X143980000Y-121256560D01*
X143744683Y-121300838D01*
X143528559Y-121439910D01*
X143383569Y-121652110D01*
X143332560Y-121904000D01*
X137333000Y-121904000D01*
X137333000Y-112776000D01*
X137261827Y-112418191D01*
X137059145Y-112114855D01*
X135737942Y-110793652D01*
X135719880Y-110702849D01*
X135408811Y-110237302D01*
X135026725Y-109982000D01*
X135408811Y-109726698D01*
X135719880Y-109261151D01*
X135829113Y-108712000D01*
X135719880Y-108162849D01*
X135408811Y-107697302D01*
X135026725Y-107442000D01*
X135408811Y-107186698D01*
X135462064Y-107107000D01*
X136322554Y-107107000D01*
X136350838Y-107257317D01*
X136489910Y-107473441D01*
X136702110Y-107618431D01*
X136954000Y-107669440D01*
X138954000Y-107669440D01*
X139189317Y-107625162D01*
X139405441Y-107486090D01*
X139550431Y-107273890D01*
X139601440Y-107022000D01*
X139601440Y-105322000D01*
X139557162Y-105086683D01*
X139549644Y-105075000D01*
X140356579Y-105075000D01*
X140306560Y-105322000D01*
X140306560Y-107022000D01*
X140350838Y-107257317D01*
X140489910Y-107473441D01*
X140702110Y-107618431D01*
X140954000Y-107669440D01*
X142954000Y-107669440D01*
X143189317Y-107625162D01*
X143405441Y-107486090D01*
X143550431Y-107273890D01*
X143601440Y-107022000D01*
X143601440Y-105322000D01*
X143557162Y-105086683D01*
X143549644Y-105075000D01*
X153843936Y-105075000D01*
X153897189Y-105154698D01*
X154279275Y-105410000D01*
X153897189Y-105665302D01*
X153843936Y-105745000D01*
X147828000Y-105745000D01*
X147470191Y-105816173D01*
X147166855Y-106018855D01*
X138023146Y-115162564D01*
X137891808Y-115293673D01*
X137749162Y-115637201D01*
X137748838Y-116009167D01*
X137890883Y-116352943D01*
X138153673Y-116616192D01*
X138497201Y-116758838D01*
X138869167Y-116759162D01*
X139212943Y-116617117D01*
X139476192Y-116354327D01*
X139476355Y-116353935D01*
X148215290Y-107615000D01*
X153843936Y-107615000D01*
X153897189Y-107694698D01*
X154279275Y-107950000D01*
X153897189Y-108205302D01*
X153586120Y-108670849D01*
X153476887Y-109220000D01*
X153586120Y-109769151D01*
X153897189Y-110234698D01*
X154279275Y-110490000D01*
X153897189Y-110745302D01*
X153586120Y-111210849D01*
X153476887Y-111760000D01*
X153586120Y-112309151D01*
X153897189Y-112774698D01*
X154279275Y-113030000D01*
X153897189Y-113285302D01*
X153586120Y-113750849D01*
X153476887Y-114300000D01*
X153586120Y-114849151D01*
X153897189Y-115314698D01*
X154279275Y-115570000D01*
X153897189Y-115825302D01*
X153586120Y-116290849D01*
X153476887Y-116840000D01*
X153586120Y-117389151D01*
X153897189Y-117854698D01*
X154279275Y-118110000D01*
X153897189Y-118365302D01*
X153843936Y-118445000D01*
X150991808Y-118445000D01*
X150991810Y-118442662D01*
X150781314Y-117933223D01*
X150391887Y-117543116D01*
X149882816Y-117331731D01*
X149331602Y-117331250D01*
X148822163Y-117541746D01*
X148581429Y-117782060D01*
X146204495Y-117782060D01*
X146183162Y-117668683D01*
X146044090Y-117452559D01*
X145831890Y-117307569D01*
X145580000Y-117256560D01*
X143980000Y-117256560D01*
X143744683Y-117300838D01*
X143528559Y-117439910D01*
X143383569Y-117652110D01*
X143332560Y-117904000D01*
X143332560Y-119904000D01*
X143376838Y-120139317D01*
X143515910Y-120355441D01*
X143728110Y-120500431D01*
X143980000Y-120551440D01*
X145580000Y-120551440D01*
X145815317Y-120507162D01*
X146031441Y-120368090D01*
X146176431Y-120155890D01*
X146227440Y-119904000D01*
X146227440Y-119652060D01*
X148581586Y-119652060D01*
X148820113Y-119891004D01*
X149329184Y-120102389D01*
X149699938Y-120102713D01*
X149911131Y-120243827D01*
X150268940Y-120315000D01*
X153843936Y-120315000D01*
X153897189Y-120394698D01*
X154279275Y-120650000D01*
X153897189Y-120905302D01*
X153843936Y-120985000D01*
X151284940Y-120985000D01*
X150927131Y-121056173D01*
X150623795Y-121258855D01*
X149669225Y-122213425D01*
X149331602Y-122213130D01*
X148822163Y-122423626D01*
X148432056Y-122813053D01*
X148220671Y-123322124D01*
X148220190Y-123873338D01*
X148430686Y-124382777D01*
X148671000Y-124623511D01*
X148671000Y-127584560D01*
X147812000Y-127584560D01*
X147576683Y-127628838D01*
X147360559Y-127767910D01*
X147215569Y-127980110D01*
X147164560Y-128232000D01*
X147164560Y-129832000D01*
X147208838Y-130067317D01*
X147347910Y-130283441D01*
X147560110Y-130428431D01*
X147812000Y-130479440D01*
X149812000Y-130479440D01*
X150047317Y-130435162D01*
X150263441Y-130296090D01*
X150408431Y-130083890D01*
X150459440Y-129832000D01*
X150459440Y-128611354D01*
X150469827Y-128595809D01*
X150508015Y-128403827D01*
X150541001Y-128238000D01*
X150541000Y-128237995D01*
X150541000Y-124623354D01*
X150779944Y-124384827D01*
X150991329Y-123875756D01*
X150991626Y-123535604D01*
X151672230Y-122855000D01*
X153843936Y-122855000D01*
X153897189Y-122934698D01*
X154279275Y-123190000D01*
X153897189Y-123445302D01*
X153586120Y-123910849D01*
X153476887Y-124460000D01*
X153586120Y-125009151D01*
X153897189Y-125474698D01*
X154362736Y-125785767D01*
X154911887Y-125895000D01*
X154968113Y-125895000D01*
X155517264Y-125785767D01*
X155982811Y-125474698D01*
X156293880Y-125009151D01*
X156403113Y-124460000D01*
X156293880Y-123910849D01*
X155982811Y-123445302D01*
X155600725Y-123190000D01*
X155982811Y-122934698D01*
X156293880Y-122469151D01*
X156403113Y-121920000D01*
X156293880Y-121370849D01*
X155982811Y-120905302D01*
X155600725Y-120650000D01*
X155982811Y-120394698D01*
X156293880Y-119929151D01*
X156403113Y-119380000D01*
X156293880Y-118830849D01*
X155982811Y-118365302D01*
X155600725Y-118110000D01*
X155982811Y-117854698D01*
X156293880Y-117389151D01*
X156403113Y-116840000D01*
X156293880Y-116290849D01*
X155982811Y-115825302D01*
X155600725Y-115570000D01*
X155982811Y-115314698D01*
X156293880Y-114849151D01*
X156403113Y-114300000D01*
X156293880Y-113750849D01*
X155982811Y-113285302D01*
X155600725Y-113030000D01*
X155982811Y-112774698D01*
X156293880Y-112309151D01*
X156403113Y-111760000D01*
X156293880Y-111210849D01*
X155982811Y-110745302D01*
X155600725Y-110490000D01*
X155982811Y-110234698D01*
X156293880Y-109769151D01*
X156403113Y-109220000D01*
X156293880Y-108670849D01*
X155982811Y-108205302D01*
X155600725Y-107950000D01*
X155982811Y-107694698D01*
X156293880Y-107229151D01*
X156403113Y-106680000D01*
X156293880Y-106130849D01*
X155982811Y-105665302D01*
X155600725Y-105410000D01*
X155982811Y-105154698D01*
X156293880Y-104689151D01*
X156403113Y-104140000D01*
X161096887Y-104140000D01*
X161206120Y-104689151D01*
X161517189Y-105154698D01*
X161625000Y-105226735D01*
X161625000Y-105593265D01*
X161517189Y-105665302D01*
X161206120Y-106130849D01*
X161096887Y-106680000D01*
X161206120Y-107229151D01*
X161517189Y-107694698D01*
X161899275Y-107950000D01*
X161517189Y-108205302D01*
X161206120Y-108670849D01*
X161096887Y-109220000D01*
X161206120Y-109769151D01*
X161517189Y-110234698D01*
X161899275Y-110490000D01*
X161517189Y-110745302D01*
X161206120Y-111210849D01*
X161096887Y-111760000D01*
X161206120Y-112309151D01*
X161517189Y-112774698D01*
X161899275Y-113030000D01*
X161517189Y-113285302D01*
X161206120Y-113750849D01*
X161096887Y-114300000D01*
X161206120Y-114849151D01*
X161517189Y-115314698D01*
X161899275Y-115570000D01*
X161517189Y-115825302D01*
X161206120Y-116290849D01*
X161096887Y-116840000D01*
X161206120Y-117389151D01*
X161517189Y-117854698D01*
X161899275Y-118110000D01*
X161517189Y-118365302D01*
X161206120Y-118830849D01*
X161096887Y-119380000D01*
X161206120Y-119929151D01*
X161517189Y-120394698D01*
X161899275Y-120650000D01*
X161517189Y-120905302D01*
X161206120Y-121370849D01*
X161096887Y-121920000D01*
X161206120Y-122469151D01*
X161517189Y-122934698D01*
X161899275Y-123190000D01*
X161517189Y-123445302D01*
X161206120Y-123910849D01*
X161096887Y-124460000D01*
X161206120Y-125009151D01*
X161517189Y-125474698D01*
X161982736Y-125785767D01*
X162531887Y-125895000D01*
X162588113Y-125895000D01*
X163137264Y-125785767D01*
X163602811Y-125474698D01*
X163913880Y-125009151D01*
X164023113Y-124460000D01*
X163913880Y-123910849D01*
X163602811Y-123445302D01*
X163220725Y-123190000D01*
X163602811Y-122934698D01*
X163913880Y-122469151D01*
X163982398Y-122124688D01*
X164673000Y-122815290D01*
X164673000Y-130810000D01*
X164744173Y-131167809D01*
X164946855Y-131471145D01*
X171550855Y-138075145D01*
X171854191Y-138277827D01*
X172212000Y-138349000D01*
X173579669Y-138349000D01*
X173662971Y-138473670D01*
X173977752Y-138684000D01*
X173662971Y-138894330D01*
X173338115Y-139380511D01*
X173224041Y-139954000D01*
X173338115Y-140527489D01*
X173662971Y-141013670D01*
X173977752Y-141224000D01*
X173662971Y-141434330D01*
X173338115Y-141920511D01*
X173224041Y-142494000D01*
X173338115Y-143067489D01*
X173662971Y-143553670D01*
X173977752Y-143764000D01*
X173662971Y-143974330D01*
X173338115Y-144460511D01*
X173224041Y-145034000D01*
X173338115Y-145607489D01*
X173662971Y-146093670D01*
X173977752Y-146304000D01*
X173662971Y-146514330D01*
X173338115Y-147000511D01*
X173224041Y-147574000D01*
X173338115Y-148147489D01*
X173662971Y-148633670D01*
X173977752Y-148844000D01*
X173662971Y-149054330D01*
X173338115Y-149540511D01*
X173224041Y-150114000D01*
X173338115Y-150687489D01*
X173662971Y-151173670D01*
X174149152Y-151498526D01*
X174722641Y-151612600D01*
X174781359Y-151612600D01*
X175354848Y-151498526D01*
X175841029Y-151173670D01*
X176022000Y-150902828D01*
X176202971Y-151173670D01*
X176689152Y-151498526D01*
X177262641Y-151612600D01*
X177321359Y-151612600D01*
X177894848Y-151498526D01*
X178381029Y-151173670D01*
X178705885Y-150687489D01*
X178819959Y-150114000D01*
X178705885Y-149540511D01*
X178381029Y-149054330D01*
X178066248Y-148844000D01*
X178381029Y-148633670D01*
X178705885Y-148147489D01*
X178819959Y-147574000D01*
X178705885Y-147000511D01*
X178381029Y-146514330D01*
X178066248Y-146304000D01*
X178381029Y-146093670D01*
X178705885Y-145607489D01*
X178819959Y-145034000D01*
X178705885Y-144460511D01*
X178381029Y-143974330D01*
X178066248Y-143764000D01*
X178381029Y-143553670D01*
X178705885Y-143067489D01*
X178819959Y-142494000D01*
X178705885Y-141920511D01*
X178381029Y-141434330D01*
X178066248Y-141224000D01*
X178381029Y-141013670D01*
X178705885Y-140527489D01*
X178819959Y-139954000D01*
X178705885Y-139380511D01*
X178381029Y-138894330D01*
X178066248Y-138684000D01*
X178381029Y-138473670D01*
X178705885Y-137987489D01*
X178819959Y-137414000D01*
X178705885Y-136840511D01*
X178381029Y-136354330D01*
X178066248Y-136144000D01*
X178381029Y-135933670D01*
X178705885Y-135447489D01*
X178819959Y-134874000D01*
X178705885Y-134300511D01*
X178381029Y-133814330D01*
X178066248Y-133604000D01*
X178381029Y-133393670D01*
X178705885Y-132907489D01*
X178819959Y-132334000D01*
X178705885Y-131760511D01*
X178381029Y-131274330D01*
X178066248Y-131064000D01*
X178381029Y-130853670D01*
X178705885Y-130367489D01*
X178819959Y-129794000D01*
X178705885Y-129220511D01*
X178381029Y-128734330D01*
X178066248Y-128524000D01*
X178381029Y-128313670D01*
X178705885Y-127827489D01*
X178819959Y-127254000D01*
X178705885Y-126680511D01*
X178381029Y-126194330D01*
X178066248Y-125984000D01*
X178381029Y-125773670D01*
X178705885Y-125287489D01*
X178819959Y-124714000D01*
X178705885Y-124140511D01*
X178381029Y-123654330D01*
X178066248Y-123444000D01*
X178381029Y-123233670D01*
X178705885Y-122747489D01*
X178819959Y-122174000D01*
X178705885Y-121600511D01*
X178381029Y-121114330D01*
X178066248Y-120904000D01*
X178381029Y-120693670D01*
X178705885Y-120207489D01*
X178819959Y-119634000D01*
X178705885Y-119060511D01*
X178381029Y-118574330D01*
X178066248Y-118364000D01*
X178381029Y-118153670D01*
X178705885Y-117667489D01*
X178819959Y-117094000D01*
X178705885Y-116520511D01*
X178381029Y-116034330D01*
X178066248Y-115824000D01*
X178381029Y-115613670D01*
X178705885Y-115127489D01*
X178819959Y-114554000D01*
X178705885Y-113980511D01*
X178381029Y-113494330D01*
X178066248Y-113284000D01*
X178381029Y-113073670D01*
X178705885Y-112587489D01*
X178819959Y-112014000D01*
X178705885Y-111440511D01*
X178381029Y-110954330D01*
X178066248Y-110744000D01*
X178381029Y-110533670D01*
X178705885Y-110047489D01*
X178819959Y-109474000D01*
X178705885Y-108900511D01*
X178381029Y-108414330D01*
X178066248Y-108204000D01*
X178381029Y-107993670D01*
X178705885Y-107507489D01*
X178819959Y-106934000D01*
X178705885Y-106360511D01*
X178381029Y-105874330D01*
X177894848Y-105549474D01*
X177321359Y-105435400D01*
X177262641Y-105435400D01*
X176689152Y-105549474D01*
X176202971Y-105874330D01*
X176022000Y-106145172D01*
X175841029Y-105874330D01*
X175526248Y-105664000D01*
X175841029Y-105453670D01*
X176165885Y-104967489D01*
X176279959Y-104394000D01*
X176165885Y-103820511D01*
X175841029Y-103334330D01*
X175827358Y-103325195D01*
X175850917Y-103320762D01*
X176067041Y-103181690D01*
X176212031Y-102969490D01*
X176263040Y-102717600D01*
X176263040Y-100990400D01*
X176218762Y-100755083D01*
X176079690Y-100538959D01*
X175867490Y-100393969D01*
X175615600Y-100342960D01*
X173888400Y-100342960D01*
X173653083Y-100387238D01*
X173436959Y-100526310D01*
X173291969Y-100738510D01*
X173255419Y-100919000D01*
X164846000Y-100919000D01*
X164488191Y-100990173D01*
X164184855Y-101192855D01*
X162658674Y-102719036D01*
X162588113Y-102705000D01*
X162531887Y-102705000D01*
X161982736Y-102814233D01*
X161517189Y-103125302D01*
X161206120Y-103590849D01*
X161096887Y-104140000D01*
X156403113Y-104140000D01*
X156293880Y-103590849D01*
X155982811Y-103125302D01*
X155517264Y-102814233D01*
X154968113Y-102705000D01*
X154911887Y-102705000D01*
X154362736Y-102814233D01*
X153897189Y-103125302D01*
X153843936Y-103205000D01*
X133350000Y-103205000D01*
X132992191Y-103276173D01*
X132688855Y-103478855D01*
X130930710Y-105237000D01*
X127842064Y-105237000D01*
X127788811Y-105157302D01*
X127323264Y-104846233D01*
X126774113Y-104737000D01*
X126717887Y-104737000D01*
X126168736Y-104846233D01*
X125703189Y-105157302D01*
X125392120Y-105622849D01*
X125282887Y-106172000D01*
X123317000Y-106172000D01*
X123317000Y-97917000D01*
X181483000Y-97917000D01*
X181483000Y-154178000D01*
X181483000Y-154178000D01*
G37*
X181483000Y-154178000D02*
X123317000Y-154178000D01*
X123317000Y-121324000D01*
X125638560Y-121324000D01*
X125638560Y-123024000D01*
X125682838Y-123259317D01*
X125821910Y-123475441D01*
X126034110Y-123620431D01*
X126286000Y-123671440D01*
X128286000Y-123671440D01*
X128521317Y-123627162D01*
X128737441Y-123488090D01*
X128882431Y-123275890D01*
X128933440Y-123024000D01*
X128933440Y-121324000D01*
X128889162Y-121088683D01*
X128750090Y-120872559D01*
X128537890Y-120727569D01*
X128286000Y-120676560D01*
X126286000Y-120676560D01*
X126050683Y-120720838D01*
X125834559Y-120859910D01*
X125689569Y-121072110D01*
X125638560Y-121324000D01*
X123317000Y-121324000D01*
X123317000Y-113792000D01*
X125282887Y-113792000D01*
X125392120Y-114341151D01*
X125703189Y-114806698D01*
X125811000Y-114878735D01*
X125811000Y-117592390D01*
X125689569Y-117770110D01*
X125638560Y-118022000D01*
X125638560Y-119722000D01*
X125682838Y-119957317D01*
X125821910Y-120173441D01*
X126034110Y-120318431D01*
X126286000Y-120369440D01*
X128286000Y-120369440D01*
X128521317Y-120325162D01*
X128737441Y-120186090D01*
X128882431Y-119973890D01*
X128933440Y-119722000D01*
X128933440Y-118022000D01*
X129638560Y-118022000D01*
X129638560Y-119722000D01*
X129682838Y-119957317D01*
X129821910Y-120173441D01*
X130034110Y-120318431D01*
X130286000Y-120369440D01*
X130351000Y-120369440D01*
X130351000Y-120676560D01*
X130286000Y-120676560D01*
X130050683Y-120720838D01*
X129834559Y-120859910D01*
X129689569Y-121072110D01*
X129638560Y-121324000D01*
X129638560Y-123024000D01*
X129682838Y-123259317D01*
X129821910Y-123475441D01*
X130034110Y-123620431D01*
X130286000Y-123671440D01*
X132286000Y-123671440D01*
X132521317Y-123627162D01*
X132737441Y-123488090D01*
X132882431Y-123275890D01*
X132933440Y-123024000D01*
X132933440Y-121324000D01*
X132889162Y-121088683D01*
X132750090Y-120872559D01*
X132537890Y-120727569D01*
X132286000Y-120676560D01*
X132221000Y-120676560D01*
X132221000Y-120369440D01*
X132286000Y-120369440D01*
X132521317Y-120325162D01*
X132737441Y-120186090D01*
X132882431Y-119973890D01*
X132933440Y-119722000D01*
X132933440Y-118022000D01*
X132889162Y-117786683D01*
X132750090Y-117570559D01*
X132537890Y-117425569D01*
X132286000Y-117374560D01*
X130286000Y-117374560D01*
X130050683Y-117418838D01*
X129834559Y-117557910D01*
X129689569Y-117770110D01*
X129638560Y-118022000D01*
X128933440Y-118022000D01*
X128889162Y-117786683D01*
X128750090Y-117570559D01*
X128537890Y-117425569D01*
X128286000Y-117374560D01*
X127681000Y-117374560D01*
X127681000Y-114878735D01*
X127788811Y-114806698D01*
X128099880Y-114341151D01*
X128209113Y-113792000D01*
X128099880Y-113242849D01*
X127788811Y-112777302D01*
X127323264Y-112466233D01*
X126774113Y-112357000D01*
X126717887Y-112357000D01*
X126168736Y-112466233D01*
X125703189Y-112777302D01*
X125392120Y-113242849D01*
X125282887Y-113792000D01*
X123317000Y-113792000D01*
X123317000Y-106172000D01*
X125282887Y-106172000D01*
X125392120Y-106721151D01*
X125703189Y-107186698D01*
X126085275Y-107442000D01*
X125703189Y-107697302D01*
X125392120Y-108162849D01*
X125282887Y-108712000D01*
X125392120Y-109261151D01*
X125703189Y-109726698D01*
X126168736Y-110037767D01*
X126717887Y-110147000D01*
X126774113Y-110147000D01*
X127323264Y-110037767D01*
X127788811Y-109726698D01*
X128099880Y-109261151D01*
X128209113Y-108712000D01*
X128099880Y-108162849D01*
X127788811Y-107697302D01*
X127406725Y-107442000D01*
X127788811Y-107186698D01*
X127842064Y-107107000D01*
X131318000Y-107107000D01*
X131675809Y-107035827D01*
X131979145Y-106833145D01*
X132968091Y-105844199D01*
X132902887Y-106172000D01*
X133012120Y-106721151D01*
X133323189Y-107186698D01*
X133705275Y-107442000D01*
X133323189Y-107697302D01*
X133012120Y-108162849D01*
X132994058Y-108253652D01*
X131672855Y-109574855D01*
X131470173Y-109878191D01*
X131399000Y-110236000D01*
X131399000Y-114808000D01*
X131470173Y-115165809D01*
X131672855Y-115469145D01*
X133939000Y-117735290D01*
X133939000Y-124358710D01*
X132405150Y-125892560D01*
X131230000Y-125892560D01*
X130994683Y-125936838D01*
X130778559Y-126075910D01*
X130633569Y-126288110D01*
X130582560Y-126540000D01*
X130582560Y-126605000D01*
X128492000Y-126605000D01*
X128134191Y-126676173D01*
X127830855Y-126878855D01*
X127442750Y-127266960D01*
X126238000Y-127266960D01*
X126002683Y-127311238D01*
X125786559Y-127450310D01*
X125641569Y-127662510D01*
X125590560Y-127914400D01*
X125590560Y-129641600D01*
X125634838Y-129876917D01*
X125773910Y-130093041D01*
X125986110Y-130238031D01*
X126027439Y-130246400D01*
X126009585Y-130258330D01*
X125684729Y-130744511D01*
X125570655Y-131318000D01*
X125684729Y-131891489D01*
X126009585Y-132377670D01*
X126324366Y-132588000D01*
X126009585Y-132798330D01*
X125684729Y-133284511D01*
X125570655Y-133858000D01*
X125684729Y-134431489D01*
X126009585Y-134917670D01*
X126324366Y-135128000D01*
X126009585Y-135338330D01*
X125684729Y-135824511D01*
X125570655Y-136398000D01*
X125684729Y-136971489D01*
X126009585Y-137457670D01*
X126324366Y-137668000D01*
X126009585Y-137878330D01*
X125684729Y-138364511D01*
X125570655Y-138938000D01*
X125684729Y-139511489D01*
X126009585Y-139997670D01*
X126324366Y-140208000D01*
X126009585Y-140418330D01*
X125684729Y-140904511D01*
X125570655Y-141478000D01*
X125684729Y-142051489D01*
X126009585Y-142537670D01*
X126495766Y-142862526D01*
X127069255Y-142976600D01*
X127438745Y-142976600D01*
X128012234Y-142862526D01*
X128498415Y-142537670D01*
X128823271Y-142051489D01*
X128937345Y-141478000D01*
X128823271Y-140904511D01*
X128498415Y-140418330D01*
X128183634Y-140208000D01*
X128236015Y-140173000D01*
X129286000Y-140173000D01*
X129758614Y-140078991D01*
X130159277Y-139811277D01*
X131321554Y-138649000D01*
X154983014Y-138649000D01*
X155025464Y-138691524D01*
X154883222Y-138786567D01*
X154525330Y-139322190D01*
X154399655Y-139954000D01*
X154525330Y-140585810D01*
X154883222Y-141121433D01*
X155418845Y-141479325D01*
X156050655Y-141605000D01*
X156115345Y-141605000D01*
X156747155Y-141479325D01*
X157282778Y-141121433D01*
X157640670Y-140585810D01*
X157766345Y-139954000D01*
X157640670Y-139322190D01*
X157282778Y-138786567D01*
X157140306Y-138691370D01*
X157481834Y-138350437D01*
X157733713Y-137743845D01*
X157734286Y-137087037D01*
X157483466Y-136480005D01*
X157019437Y-136015166D01*
X156412845Y-135763287D01*
X155756037Y-135762714D01*
X155149005Y-136013534D01*
X154983250Y-136179000D01*
X131791000Y-136179000D01*
X131791000Y-134874000D01*
X131696991Y-134401386D01*
X131429277Y-134000723D01*
X130413277Y-132984723D01*
X130012614Y-132717009D01*
X129540000Y-132623000D01*
X128236015Y-132623000D01*
X128183634Y-132588000D01*
X128352750Y-132475000D01*
X130582560Y-132475000D01*
X130582560Y-132540000D01*
X130626838Y-132775317D01*
X130765910Y-132991441D01*
X130978110Y-133136431D01*
X131230000Y-133187440D01*
X132930000Y-133187440D01*
X133165317Y-133143162D01*
X133381441Y-133004090D01*
X133526431Y-132791890D01*
X133577440Y-132540000D01*
X133577440Y-131364850D01*
X136710290Y-128232000D01*
X143164560Y-128232000D01*
X143164560Y-129832000D01*
X143208838Y-130067317D01*
X143347910Y-130283441D01*
X143560110Y-130428431D01*
X143812000Y-130479440D01*
X145812000Y-130479440D01*
X146047317Y-130435162D01*
X146263441Y-130296090D01*
X146408431Y-130083890D01*
X146459440Y-129832000D01*
X146459440Y-128232000D01*
X146415162Y-127996683D01*
X146276090Y-127780559D01*
X146063890Y-127635569D01*
X145812000Y-127584560D01*
X143812000Y-127584560D01*
X143576683Y-127628838D01*
X143360559Y-127767910D01*
X143215569Y-127980110D01*
X143164560Y-128232000D01*
X136710290Y-128232000D01*
X137059145Y-127883145D01*
X137261827Y-127579809D01*
X137333000Y-127222000D01*
X137333000Y-121904000D01*
X143332560Y-121904000D01*
X143332560Y-123904000D01*
X143376838Y-124139317D01*
X143515910Y-124355441D01*
X143728110Y-124500431D01*
X143980000Y-124551440D01*
X145580000Y-124551440D01*
X145815317Y-124507162D01*
X146031441Y-124368090D01*
X146176431Y-124155890D01*
X146227440Y-123904000D01*
X146227440Y-121904000D01*
X146183162Y-121668683D01*
X146044090Y-121452559D01*
X145831890Y-121307569D01*
X145580000Y-121256560D01*
X143980000Y-121256560D01*
X143744683Y-121300838D01*
X143528559Y-121439910D01*
X143383569Y-121652110D01*
X143332560Y-121904000D01*
X137333000Y-121904000D01*
X137333000Y-112776000D01*
X137261827Y-112418191D01*
X137059145Y-112114855D01*
X135737942Y-110793652D01*
X135719880Y-110702849D01*
X135408811Y-110237302D01*
X135026725Y-109982000D01*
X135408811Y-109726698D01*
X135719880Y-109261151D01*
X135829113Y-108712000D01*
X135719880Y-108162849D01*
X135408811Y-107697302D01*
X135026725Y-107442000D01*
X135408811Y-107186698D01*
X135462064Y-107107000D01*
X136322554Y-107107000D01*
X136350838Y-107257317D01*
X136489910Y-107473441D01*
X136702110Y-107618431D01*
X136954000Y-107669440D01*
X138954000Y-107669440D01*
X139189317Y-107625162D01*
X139405441Y-107486090D01*
X139550431Y-107273890D01*
X139601440Y-107022000D01*
X139601440Y-105322000D01*
X139557162Y-105086683D01*
X139549644Y-105075000D01*
X140356579Y-105075000D01*
X140306560Y-105322000D01*
X140306560Y-107022000D01*
X140350838Y-107257317D01*
X140489910Y-107473441D01*
X140702110Y-107618431D01*
X140954000Y-107669440D01*
X142954000Y-107669440D01*
X143189317Y-107625162D01*
X143405441Y-107486090D01*
X143550431Y-107273890D01*
X143601440Y-107022000D01*
X143601440Y-105322000D01*
X143557162Y-105086683D01*
X143549644Y-105075000D01*
X153843936Y-105075000D01*
X153897189Y-105154698D01*
X154279275Y-105410000D01*
X153897189Y-105665302D01*
X153843936Y-105745000D01*
X147828000Y-105745000D01*
X147470191Y-105816173D01*
X147166855Y-106018855D01*
X138023146Y-115162564D01*
X137891808Y-115293673D01*
X137749162Y-115637201D01*
X137748838Y-116009167D01*
X137890883Y-116352943D01*
X138153673Y-116616192D01*
X138497201Y-116758838D01*
X138869167Y-116759162D01*
X139212943Y-116617117D01*
X139476192Y-116354327D01*
X139476355Y-116353935D01*
X148215290Y-107615000D01*
X153843936Y-107615000D01*
X153897189Y-107694698D01*
X154279275Y-107950000D01*
X153897189Y-108205302D01*
X153586120Y-108670849D01*
X153476887Y-109220000D01*
X153586120Y-109769151D01*
X153897189Y-110234698D01*
X154279275Y-110490000D01*
X153897189Y-110745302D01*
X153586120Y-111210849D01*
X153476887Y-111760000D01*
X153586120Y-112309151D01*
X153897189Y-112774698D01*
X154279275Y-113030000D01*
X153897189Y-113285302D01*
X153586120Y-113750849D01*
X153476887Y-114300000D01*
X153586120Y-114849151D01*
X153897189Y-115314698D01*
X154279275Y-115570000D01*
X153897189Y-115825302D01*
X153586120Y-116290849D01*
X153476887Y-116840000D01*
X153586120Y-117389151D01*
X153897189Y-117854698D01*
X154279275Y-118110000D01*
X153897189Y-118365302D01*
X153843936Y-118445000D01*
X150991808Y-118445000D01*
X150991810Y-118442662D01*
X150781314Y-117933223D01*
X150391887Y-117543116D01*
X149882816Y-117331731D01*
X149331602Y-117331250D01*
X148822163Y-117541746D01*
X148581429Y-117782060D01*
X146204495Y-117782060D01*
X146183162Y-117668683D01*
X146044090Y-117452559D01*
X145831890Y-117307569D01*
X145580000Y-117256560D01*
X143980000Y-117256560D01*
X143744683Y-117300838D01*
X143528559Y-117439910D01*
X143383569Y-117652110D01*
X143332560Y-117904000D01*
X143332560Y-119904000D01*
X143376838Y-120139317D01*
X143515910Y-120355441D01*
X143728110Y-120500431D01*
X143980000Y-120551440D01*
X145580000Y-120551440D01*
X145815317Y-120507162D01*
X146031441Y-120368090D01*
X146176431Y-120155890D01*
X146227440Y-119904000D01*
X146227440Y-119652060D01*
X148581586Y-119652060D01*
X148820113Y-119891004D01*
X149329184Y-120102389D01*
X149699938Y-120102713D01*
X149911131Y-120243827D01*
X150268940Y-120315000D01*
X153843936Y-120315000D01*
X153897189Y-120394698D01*
X154279275Y-120650000D01*
X153897189Y-120905302D01*
X153843936Y-120985000D01*
X151284940Y-120985000D01*
X150927131Y-121056173D01*
X150623795Y-121258855D01*
X149669225Y-122213425D01*
X149331602Y-122213130D01*
X148822163Y-122423626D01*
X148432056Y-122813053D01*
X148220671Y-123322124D01*
X148220190Y-123873338D01*
X148430686Y-124382777D01*
X148671000Y-124623511D01*
X148671000Y-127584560D01*
X147812000Y-127584560D01*
X147576683Y-127628838D01*
X147360559Y-127767910D01*
X147215569Y-127980110D01*
X147164560Y-128232000D01*
X147164560Y-129832000D01*
X147208838Y-130067317D01*
X147347910Y-130283441D01*
X147560110Y-130428431D01*
X147812000Y-130479440D01*
X149812000Y-130479440D01*
X150047317Y-130435162D01*
X150263441Y-130296090D01*
X150408431Y-130083890D01*
X150459440Y-129832000D01*
X150459440Y-128611354D01*
X150469827Y-128595809D01*
X150508015Y-128403827D01*
X150541001Y-128238000D01*
X150541000Y-128237995D01*
X150541000Y-124623354D01*
X150779944Y-124384827D01*
X150991329Y-123875756D01*
X150991626Y-123535604D01*
X151672230Y-122855000D01*
X153843936Y-122855000D01*
X153897189Y-122934698D01*
X154279275Y-123190000D01*
X153897189Y-123445302D01*
X153586120Y-123910849D01*
X153476887Y-124460000D01*
X153586120Y-125009151D01*
X153897189Y-125474698D01*
X154362736Y-125785767D01*
X154911887Y-125895000D01*
X154968113Y-125895000D01*
X155517264Y-125785767D01*
X155982811Y-125474698D01*
X156293880Y-125009151D01*
X156403113Y-124460000D01*
X156293880Y-123910849D01*
X155982811Y-123445302D01*
X155600725Y-123190000D01*
X155982811Y-122934698D01*
X156293880Y-122469151D01*
X156403113Y-121920000D01*
X156293880Y-121370849D01*
X155982811Y-120905302D01*
X155600725Y-120650000D01*
X155982811Y-120394698D01*
X156293880Y-119929151D01*
X156403113Y-119380000D01*
X156293880Y-118830849D01*
X155982811Y-118365302D01*
X155600725Y-118110000D01*
X155982811Y-117854698D01*
X156293880Y-117389151D01*
X156403113Y-116840000D01*
X156293880Y-116290849D01*
X155982811Y-115825302D01*
X155600725Y-115570000D01*
X155982811Y-115314698D01*
X156293880Y-114849151D01*
X156403113Y-114300000D01*
X156293880Y-113750849D01*
X155982811Y-113285302D01*
X155600725Y-113030000D01*
X155982811Y-112774698D01*
X156293880Y-112309151D01*
X156403113Y-111760000D01*
X156293880Y-111210849D01*
X155982811Y-110745302D01*
X155600725Y-110490000D01*
X155982811Y-110234698D01*
X156293880Y-109769151D01*
X156403113Y-109220000D01*
X156293880Y-108670849D01*
X155982811Y-108205302D01*
X155600725Y-107950000D01*
X155982811Y-107694698D01*
X156293880Y-107229151D01*
X156403113Y-106680000D01*
X156293880Y-106130849D01*
X155982811Y-105665302D01*
X155600725Y-105410000D01*
X155982811Y-105154698D01*
X156293880Y-104689151D01*
X156403113Y-104140000D01*
X161096887Y-104140000D01*
X161206120Y-104689151D01*
X161517189Y-105154698D01*
X161625000Y-105226735D01*
X161625000Y-105593265D01*
X161517189Y-105665302D01*
X161206120Y-106130849D01*
X161096887Y-106680000D01*
X161206120Y-107229151D01*
X161517189Y-107694698D01*
X161899275Y-107950000D01*
X161517189Y-108205302D01*
X161206120Y-108670849D01*
X161096887Y-109220000D01*
X161206120Y-109769151D01*
X161517189Y-110234698D01*
X161899275Y-110490000D01*
X161517189Y-110745302D01*
X161206120Y-111210849D01*
X161096887Y-111760000D01*
X161206120Y-112309151D01*
X161517189Y-112774698D01*
X161899275Y-113030000D01*
X161517189Y-113285302D01*
X161206120Y-113750849D01*
X161096887Y-114300000D01*
X161206120Y-114849151D01*
X161517189Y-115314698D01*
X161899275Y-115570000D01*
X161517189Y-115825302D01*
X161206120Y-116290849D01*
X161096887Y-116840000D01*
X161206120Y-117389151D01*
X161517189Y-117854698D01*
X161899275Y-118110000D01*
X161517189Y-118365302D01*
X161206120Y-118830849D01*
X161096887Y-119380000D01*
X161206120Y-119929151D01*
X161517189Y-120394698D01*
X161899275Y-120650000D01*
X161517189Y-120905302D01*
X161206120Y-121370849D01*
X161096887Y-121920000D01*
X161206120Y-122469151D01*
X161517189Y-122934698D01*
X161899275Y-123190000D01*
X161517189Y-123445302D01*
X161206120Y-123910849D01*
X161096887Y-124460000D01*
X161206120Y-125009151D01*
X161517189Y-125474698D01*
X161982736Y-125785767D01*
X162531887Y-125895000D01*
X162588113Y-125895000D01*
X163137264Y-125785767D01*
X163602811Y-125474698D01*
X163913880Y-125009151D01*
X164023113Y-124460000D01*
X163913880Y-123910849D01*
X163602811Y-123445302D01*
X163220725Y-123190000D01*
X163602811Y-122934698D01*
X163913880Y-122469151D01*
X163982398Y-122124688D01*
X164673000Y-122815290D01*
X164673000Y-130810000D01*
X164744173Y-131167809D01*
X164946855Y-131471145D01*
X171550855Y-138075145D01*
X171854191Y-138277827D01*
X172212000Y-138349000D01*
X173579669Y-138349000D01*
X173662971Y-138473670D01*
X173977752Y-138684000D01*
X173662971Y-138894330D01*
X173338115Y-139380511D01*
X173224041Y-139954000D01*
X173338115Y-140527489D01*
X173662971Y-141013670D01*
X173977752Y-141224000D01*
X173662971Y-141434330D01*
X173338115Y-141920511D01*
X173224041Y-142494000D01*
X173338115Y-143067489D01*
X173662971Y-143553670D01*
X173977752Y-143764000D01*
X173662971Y-143974330D01*
X173338115Y-144460511D01*
X173224041Y-145034000D01*
X173338115Y-145607489D01*
X173662971Y-146093670D01*
X173977752Y-146304000D01*
X173662971Y-146514330D01*
X173338115Y-147000511D01*
X173224041Y-147574000D01*
X173338115Y-148147489D01*
X173662971Y-148633670D01*
X173977752Y-148844000D01*
X173662971Y-149054330D01*
X173338115Y-149540511D01*
X173224041Y-150114000D01*
X173338115Y-150687489D01*
X173662971Y-151173670D01*
X174149152Y-151498526D01*
X174722641Y-151612600D01*
X174781359Y-151612600D01*
X175354848Y-151498526D01*
X175841029Y-151173670D01*
X176022000Y-150902828D01*
X176202971Y-151173670D01*
X176689152Y-151498526D01*
X177262641Y-151612600D01*
X177321359Y-151612600D01*
X177894848Y-151498526D01*
X178381029Y-151173670D01*
X178705885Y-150687489D01*
X178819959Y-150114000D01*
X178705885Y-149540511D01*
X178381029Y-149054330D01*
X178066248Y-148844000D01*
X178381029Y-148633670D01*
X178705885Y-148147489D01*
X178819959Y-147574000D01*
X178705885Y-147000511D01*
X178381029Y-146514330D01*
X178066248Y-146304000D01*
X178381029Y-146093670D01*
X178705885Y-145607489D01*
X178819959Y-145034000D01*
X178705885Y-144460511D01*
X178381029Y-143974330D01*
X178066248Y-143764000D01*
X178381029Y-143553670D01*
X178705885Y-143067489D01*
X178819959Y-142494000D01*
X178705885Y-141920511D01*
X178381029Y-141434330D01*
X178066248Y-141224000D01*
X178381029Y-141013670D01*
X178705885Y-140527489D01*
X178819959Y-139954000D01*
X178705885Y-139380511D01*
X178381029Y-138894330D01*
X178066248Y-138684000D01*
X178381029Y-138473670D01*
X178705885Y-137987489D01*
X178819959Y-137414000D01*
X178705885Y-136840511D01*
X178381029Y-136354330D01*
X178066248Y-136144000D01*
X178381029Y-135933670D01*
X178705885Y-135447489D01*
X178819959Y-134874000D01*
X178705885Y-134300511D01*
X178381029Y-133814330D01*
X178066248Y-133604000D01*
X178381029Y-133393670D01*
X178705885Y-132907489D01*
X178819959Y-132334000D01*
X178705885Y-131760511D01*
X178381029Y-131274330D01*
X178066248Y-131064000D01*
X178381029Y-130853670D01*
X178705885Y-130367489D01*
X178819959Y-129794000D01*
X178705885Y-129220511D01*
X178381029Y-128734330D01*
X178066248Y-128524000D01*
X178381029Y-128313670D01*
X178705885Y-127827489D01*
X178819959Y-127254000D01*
X178705885Y-126680511D01*
X178381029Y-126194330D01*
X178066248Y-125984000D01*
X178381029Y-125773670D01*
X178705885Y-125287489D01*
X178819959Y-124714000D01*
X178705885Y-124140511D01*
X178381029Y-123654330D01*
X178066248Y-123444000D01*
X178381029Y-123233670D01*
X178705885Y-122747489D01*
X178819959Y-122174000D01*
X178705885Y-121600511D01*
X178381029Y-121114330D01*
X178066248Y-120904000D01*
X178381029Y-120693670D01*
X178705885Y-120207489D01*
X178819959Y-119634000D01*
X178705885Y-119060511D01*
X178381029Y-118574330D01*
X178066248Y-118364000D01*
X178381029Y-118153670D01*
X178705885Y-117667489D01*
X178819959Y-117094000D01*
X178705885Y-116520511D01*
X178381029Y-116034330D01*
X178066248Y-115824000D01*
X178381029Y-115613670D01*
X178705885Y-115127489D01*
X178819959Y-114554000D01*
X178705885Y-113980511D01*
X178381029Y-113494330D01*
X178066248Y-113284000D01*
X178381029Y-113073670D01*
X178705885Y-112587489D01*
X178819959Y-112014000D01*
X178705885Y-111440511D01*
X178381029Y-110954330D01*
X178066248Y-110744000D01*
X178381029Y-110533670D01*
X178705885Y-110047489D01*
X178819959Y-109474000D01*
X178705885Y-108900511D01*
X178381029Y-108414330D01*
X178066248Y-108204000D01*
X178381029Y-107993670D01*
X178705885Y-107507489D01*
X178819959Y-106934000D01*
X178705885Y-106360511D01*
X178381029Y-105874330D01*
X177894848Y-105549474D01*
X177321359Y-105435400D01*
X177262641Y-105435400D01*
X176689152Y-105549474D01*
X176202971Y-105874330D01*
X176022000Y-106145172D01*
X175841029Y-105874330D01*
X175526248Y-105664000D01*
X175841029Y-105453670D01*
X176165885Y-104967489D01*
X176279959Y-104394000D01*
X176165885Y-103820511D01*
X175841029Y-103334330D01*
X175827358Y-103325195D01*
X175850917Y-103320762D01*
X176067041Y-103181690D01*
X176212031Y-102969490D01*
X176263040Y-102717600D01*
X176263040Y-100990400D01*
X176218762Y-100755083D01*
X176079690Y-100538959D01*
X175867490Y-100393969D01*
X175615600Y-100342960D01*
X173888400Y-100342960D01*
X173653083Y-100387238D01*
X173436959Y-100526310D01*
X173291969Y-100738510D01*
X173255419Y-100919000D01*
X164846000Y-100919000D01*
X164488191Y-100990173D01*
X164184855Y-101192855D01*
X162658674Y-102719036D01*
X162588113Y-102705000D01*
X162531887Y-102705000D01*
X161982736Y-102814233D01*
X161517189Y-103125302D01*
X161206120Y-103590849D01*
X161096887Y-104140000D01*
X156403113Y-104140000D01*
X156293880Y-103590849D01*
X155982811Y-103125302D01*
X155517264Y-102814233D01*
X154968113Y-102705000D01*
X154911887Y-102705000D01*
X154362736Y-102814233D01*
X153897189Y-103125302D01*
X153843936Y-103205000D01*
X133350000Y-103205000D01*
X132992191Y-103276173D01*
X132688855Y-103478855D01*
X130930710Y-105237000D01*
X127842064Y-105237000D01*
X127788811Y-105157302D01*
X127323264Y-104846233D01*
X126774113Y-104737000D01*
X126717887Y-104737000D01*
X126168736Y-104846233D01*
X125703189Y-105157302D01*
X125392120Y-105622849D01*
X125282887Y-106172000D01*
X123317000Y-106172000D01*
X123317000Y-97917000D01*
X181483000Y-97917000D01*
X181483000Y-154178000D01*
M02*
