G04 #@! TF.FileFunction,Legend,Top*
%FSLAX46Y46*%
G04 Gerber Fmt 4.6, Leading zero omitted, Abs format (unit mm)*
G04 Created by KiCad (PCBNEW 4.0.1-3.201512221402+6198~38~ubuntu14.04.1-stable) date Fri 08 Jan 2016 09:21:13 PM CST*
%MOMM*%
G01*
G04 APERTURE LIST*
%ADD10C,0.100000*%
%ADD11C,0.150000*%
G04 APERTURE END LIST*
D10*
D11*
X145805000Y-121904000D02*
X145805000Y-119904000D01*
X143755000Y-119904000D02*
X143755000Y-121904000D01*
X145812000Y-130057000D02*
X147812000Y-130057000D01*
X147812000Y-128007000D02*
X145812000Y-128007000D01*
X128524000Y-130048000D02*
X128524000Y-142748000D01*
X128524000Y-142748000D02*
X125984000Y-142748000D01*
X125984000Y-142748000D02*
X125984000Y-130048000D01*
X128804000Y-127228000D02*
X128804000Y-128778000D01*
X128524000Y-130048000D02*
X125984000Y-130048000D01*
X125704000Y-128778000D02*
X125704000Y-127228000D01*
X125704000Y-127228000D02*
X128804000Y-127228000D01*
X178562000Y-151384000D02*
X178562000Y-100584000D01*
X173482000Y-103124000D02*
X173482000Y-151384000D01*
X178562000Y-151384000D02*
X173482000Y-151384000D01*
X178562000Y-100584000D02*
X176022000Y-100584000D01*
X174752000Y-100304000D02*
X173202000Y-100304000D01*
X176022000Y-100584000D02*
X176022000Y-103124000D01*
X176022000Y-103124000D02*
X173482000Y-103124000D01*
X173202000Y-100304000D02*
X173202000Y-101854000D01*
X140954000Y-107247000D02*
X138954000Y-107247000D01*
X138954000Y-105097000D02*
X140954000Y-105097000D01*
X130286000Y-119947000D02*
X128286000Y-119947000D01*
X128286000Y-117797000D02*
X130286000Y-117797000D01*
X128286000Y-121099000D02*
X130286000Y-121099000D01*
X130286000Y-123249000D02*
X128286000Y-123249000D01*
X131005000Y-130540000D02*
X131005000Y-128540000D01*
X133155000Y-128540000D02*
X133155000Y-130540000D01*
X157353000Y-134747000D02*
X157353000Y-145161000D01*
X157353000Y-145161000D02*
X140843000Y-145161000D01*
X140843000Y-145161000D02*
X140843000Y-134747000D01*
X140843000Y-134747000D02*
X157353000Y-134747000D01*
X126881000Y-103877000D02*
X126881000Y-105147000D01*
X134231000Y-103877000D02*
X134231000Y-105147000D01*
X134231000Y-116087000D02*
X134231000Y-114817000D01*
X126881000Y-116087000D02*
X126881000Y-114817000D01*
X126881000Y-103877000D02*
X134231000Y-103877000D01*
X126881000Y-116087000D02*
X134231000Y-116087000D01*
X126881000Y-105147000D02*
X125946000Y-105147000D01*
X155075000Y-101845000D02*
X155075000Y-103115000D01*
X162425000Y-101845000D02*
X162425000Y-103115000D01*
X162425000Y-126755000D02*
X162425000Y-125485000D01*
X155075000Y-126755000D02*
X155075000Y-125485000D01*
X155075000Y-101845000D02*
X162425000Y-101845000D01*
X155075000Y-126755000D02*
X162425000Y-126755000D01*
X155075000Y-103115000D02*
X154140000Y-103115000D01*
X150606760Y-125857000D02*
X150205440Y-126057660D01*
X150205440Y-126057660D02*
X149606000Y-126159260D01*
X149606000Y-126159260D02*
X149105620Y-126057660D01*
X149105620Y-126057660D02*
X148407120Y-125658880D01*
X148407120Y-125658880D02*
X148005800Y-125056900D01*
X148005800Y-125056900D02*
X147805140Y-124457460D01*
X147805140Y-124457460D02*
X147805140Y-117858540D01*
X147805140Y-117858540D02*
X148005800Y-117157500D01*
X148005800Y-117157500D02*
X148305520Y-116758720D01*
X148305520Y-116758720D02*
X148805900Y-116357400D01*
X148805900Y-116357400D02*
X149405340Y-116156740D01*
X149405340Y-116156740D02*
X149905720Y-116156740D01*
X149905720Y-116156740D02*
X150406100Y-116357400D01*
X150406100Y-116357400D02*
X151005540Y-116857780D01*
X151005540Y-116857780D02*
X151305260Y-117358160D01*
X151305260Y-117358160D02*
X151406860Y-117858540D01*
X151406860Y-117957600D02*
X151406860Y-124559060D01*
X151406860Y-124559060D02*
X151305260Y-124957840D01*
X151305260Y-124957840D02*
X151005540Y-125458220D01*
X151005540Y-125458220D02*
X150505160Y-125958600D01*
X151935180Y-117967760D02*
X151886920Y-117508020D01*
X151886920Y-117508020D02*
X151775160Y-117109240D01*
X151775160Y-117109240D02*
X151556720Y-116677440D01*
X151556720Y-116677440D02*
X151325580Y-116387880D01*
X151325580Y-116387880D02*
X150975060Y-116057680D01*
X150975060Y-116057680D02*
X150436580Y-115768120D01*
X150436580Y-115768120D02*
X149837140Y-115638580D01*
X149837140Y-115638580D02*
X149326600Y-115638580D01*
X149326600Y-115638580D02*
X148625560Y-115808760D01*
X148625560Y-115808760D02*
X148036280Y-116207540D01*
X148036280Y-116207540D02*
X147665440Y-116667280D01*
X147665440Y-116667280D02*
X147457160Y-117088920D01*
X147457160Y-117088920D02*
X147297140Y-117538500D01*
X147297140Y-117538500D02*
X147266660Y-117977920D01*
X147485100Y-125318520D02*
X147706080Y-125696980D01*
X147706080Y-125696980D02*
X147985480Y-126017020D01*
X147985480Y-126017020D02*
X148315680Y-126268480D01*
X148315680Y-126268480D02*
X148866860Y-126568200D01*
X148866860Y-126568200D02*
X149336760Y-126677420D01*
X149336760Y-126677420D02*
X149796500Y-126697740D01*
X149796500Y-126697740D02*
X150256240Y-126608840D01*
X150256240Y-126608840D02*
X150705820Y-126418340D01*
X150705820Y-126418340D02*
X151175720Y-126057660D01*
X151175720Y-126057660D02*
X151495760Y-125707140D01*
X151495760Y-125707140D02*
X151726900Y-125318520D01*
X151726900Y-125318520D02*
X151866600Y-124889260D01*
X151866600Y-124889260D02*
X151935180Y-124447300D01*
X147276820Y-117957600D02*
X147276820Y-124409200D01*
X147276820Y-124409200D02*
X147314920Y-124828300D01*
X147314920Y-124828300D02*
X147485100Y-125318520D01*
X151935180Y-117957600D02*
X151935180Y-124409200D01*
X142851143Y-121070666D02*
X142898762Y-121118285D01*
X142946381Y-121261142D01*
X142946381Y-121356380D01*
X142898762Y-121499238D01*
X142803524Y-121594476D01*
X142708286Y-121642095D01*
X142517810Y-121689714D01*
X142374952Y-121689714D01*
X142184476Y-121642095D01*
X142089238Y-121594476D01*
X141994000Y-121499238D01*
X141946381Y-121356380D01*
X141946381Y-121261142D01*
X141994000Y-121118285D01*
X142041619Y-121070666D01*
X142946381Y-120118285D02*
X142946381Y-120689714D01*
X142946381Y-120404000D02*
X141946381Y-120404000D01*
X142089238Y-120499238D01*
X142184476Y-120594476D01*
X142232095Y-120689714D01*
X146645334Y-131689143D02*
X146597715Y-131736762D01*
X146454858Y-131784381D01*
X146359620Y-131784381D01*
X146216762Y-131736762D01*
X146121524Y-131641524D01*
X146073905Y-131546286D01*
X146026286Y-131355810D01*
X146026286Y-131212952D01*
X146073905Y-131022476D01*
X146121524Y-130927238D01*
X146216762Y-130832000D01*
X146359620Y-130784381D01*
X146454858Y-130784381D01*
X146597715Y-130832000D01*
X146645334Y-130879619D01*
X147026286Y-130879619D02*
X147073905Y-130832000D01*
X147169143Y-130784381D01*
X147407239Y-130784381D01*
X147502477Y-130832000D01*
X147550096Y-130879619D01*
X147597715Y-130974857D01*
X147597715Y-131070095D01*
X147550096Y-131212952D01*
X146978667Y-131784381D01*
X147597715Y-131784381D01*
X126515905Y-144724381D02*
X126515905Y-143724381D01*
X126896858Y-143724381D01*
X126992096Y-143772000D01*
X127039715Y-143819619D01*
X127087334Y-143914857D01*
X127087334Y-144057714D01*
X127039715Y-144152952D01*
X126992096Y-144200571D01*
X126896858Y-144248190D01*
X126515905Y-144248190D01*
X128039715Y-144724381D02*
X127468286Y-144724381D01*
X127754000Y-144724381D02*
X127754000Y-143724381D01*
X127658762Y-143867238D01*
X127563524Y-143962476D01*
X127468286Y-144010095D01*
X175029905Y-99766381D02*
X175029905Y-98766381D01*
X175410858Y-98766381D01*
X175506096Y-98814000D01*
X175553715Y-98861619D01*
X175601334Y-98956857D01*
X175601334Y-99099714D01*
X175553715Y-99194952D01*
X175506096Y-99242571D01*
X175410858Y-99290190D01*
X175029905Y-99290190D01*
X175982286Y-98861619D02*
X176029905Y-98814000D01*
X176125143Y-98766381D01*
X176363239Y-98766381D01*
X176458477Y-98814000D01*
X176506096Y-98861619D01*
X176553715Y-98956857D01*
X176553715Y-99052095D01*
X176506096Y-99194952D01*
X175934667Y-99766381D01*
X176553715Y-99766381D01*
X139787334Y-104324381D02*
X139454000Y-103848190D01*
X139215905Y-104324381D02*
X139215905Y-103324381D01*
X139596858Y-103324381D01*
X139692096Y-103372000D01*
X139739715Y-103419619D01*
X139787334Y-103514857D01*
X139787334Y-103657714D01*
X139739715Y-103752952D01*
X139692096Y-103800571D01*
X139596858Y-103848190D01*
X139215905Y-103848190D01*
X140739715Y-104324381D02*
X140168286Y-104324381D01*
X140454000Y-104324381D02*
X140454000Y-103324381D01*
X140358762Y-103467238D01*
X140263524Y-103562476D01*
X140168286Y-103610095D01*
X129119334Y-117546381D02*
X128786000Y-117070190D01*
X128547905Y-117546381D02*
X128547905Y-116546381D01*
X128928858Y-116546381D01*
X129024096Y-116594000D01*
X129071715Y-116641619D01*
X129119334Y-116736857D01*
X129119334Y-116879714D01*
X129071715Y-116974952D01*
X129024096Y-117022571D01*
X128928858Y-117070190D01*
X128547905Y-117070190D01*
X129500286Y-116641619D02*
X129547905Y-116594000D01*
X129643143Y-116546381D01*
X129881239Y-116546381D01*
X129976477Y-116594000D01*
X130024096Y-116641619D01*
X130071715Y-116736857D01*
X130071715Y-116832095D01*
X130024096Y-116974952D01*
X129452667Y-117546381D01*
X130071715Y-117546381D01*
X129119334Y-124658381D02*
X128786000Y-124182190D01*
X128547905Y-124658381D02*
X128547905Y-123658381D01*
X128928858Y-123658381D01*
X129024096Y-123706000D01*
X129071715Y-123753619D01*
X129119334Y-123848857D01*
X129119334Y-123991714D01*
X129071715Y-124086952D01*
X129024096Y-124134571D01*
X128928858Y-124182190D01*
X128547905Y-124182190D01*
X129452667Y-123658381D02*
X130071715Y-123658381D01*
X129738381Y-124039333D01*
X129881239Y-124039333D01*
X129976477Y-124086952D01*
X130024096Y-124134571D01*
X130071715Y-124229810D01*
X130071715Y-124467905D01*
X130024096Y-124563143D01*
X129976477Y-124610762D01*
X129881239Y-124658381D01*
X129595524Y-124658381D01*
X129500286Y-124610762D01*
X129452667Y-124563143D01*
X134832381Y-129706666D02*
X134356190Y-130040000D01*
X134832381Y-130278095D02*
X133832381Y-130278095D01*
X133832381Y-129897142D01*
X133880000Y-129801904D01*
X133927619Y-129754285D01*
X134022857Y-129706666D01*
X134165714Y-129706666D01*
X134260952Y-129754285D01*
X134308571Y-129801904D01*
X134356190Y-129897142D01*
X134356190Y-130278095D01*
X134165714Y-128849523D02*
X134832381Y-128849523D01*
X133784762Y-129087619D02*
X134499048Y-129325714D01*
X134499048Y-128706666D01*
X155702095Y-133056381D02*
X155702095Y-133865905D01*
X155749714Y-133961143D01*
X155797333Y-134008762D01*
X155892571Y-134056381D01*
X156083048Y-134056381D01*
X156178286Y-134008762D01*
X156225905Y-133961143D01*
X156273524Y-133865905D01*
X156273524Y-133056381D01*
X157273524Y-134056381D02*
X156702095Y-134056381D01*
X156987809Y-134056381D02*
X156987809Y-133056381D01*
X156892571Y-133199238D01*
X156797333Y-133294476D01*
X156702095Y-133342095D01*
X129540095Y-102068381D02*
X129540095Y-102877905D01*
X129587714Y-102973143D01*
X129635333Y-103020762D01*
X129730571Y-103068381D01*
X129921048Y-103068381D01*
X130016286Y-103020762D01*
X130063905Y-102973143D01*
X130111524Y-102877905D01*
X130111524Y-102068381D01*
X130540095Y-102163619D02*
X130587714Y-102116000D01*
X130682952Y-102068381D01*
X130921048Y-102068381D01*
X131016286Y-102116000D01*
X131063905Y-102163619D01*
X131111524Y-102258857D01*
X131111524Y-102354095D01*
X131063905Y-102496952D01*
X130492476Y-103068381D01*
X131111524Y-103068381D01*
X157734095Y-100290381D02*
X157734095Y-101099905D01*
X157781714Y-101195143D01*
X157829333Y-101242762D01*
X157924571Y-101290381D01*
X158115048Y-101290381D01*
X158210286Y-101242762D01*
X158257905Y-101195143D01*
X158305524Y-101099905D01*
X158305524Y-100290381D01*
X158686476Y-100290381D02*
X159305524Y-100290381D01*
X158972190Y-100671333D01*
X159115048Y-100671333D01*
X159210286Y-100718952D01*
X159257905Y-100766571D01*
X159305524Y-100861810D01*
X159305524Y-101099905D01*
X159257905Y-101195143D01*
X159210286Y-101242762D01*
X159115048Y-101290381D01*
X158829333Y-101290381D01*
X158734095Y-101242762D01*
X158686476Y-101195143D01*
X149129809Y-114530190D02*
X149129809Y-115006381D01*
X148796476Y-114006381D02*
X149129809Y-114530190D01*
X149463143Y-114006381D01*
X150320286Y-115006381D02*
X149748857Y-115006381D01*
X150034571Y-115006381D02*
X150034571Y-114006381D01*
X149939333Y-114149238D01*
X149844095Y-114244476D01*
X149748857Y-114292095D01*
M02*
